<?xml version="1.0" standalone="no"?>
<!DOCTYPE svg PUBLIC "-//W3C//DTD SVG 1.1//EN" "http://www.w3.org/Graphics/SVG/1.1/DTD/svg11.dtd" >
<svg xmlns="http://www.w3.org/2000/svg" xmlns:xlink="http://www.w3.org/1999/xlink" version="1.1">
<metadata></metadata>
<defs>
<font id="kalamregular" horiz-adv-x="1245" >
<font-face units-per-em="2048" ascent="1638" descent="-410" />
<missing-glyph horiz-adv-x="821" />
<glyph unicode="&#xfb01;" horiz-adv-x="1081" d="M88 847q0 33 73 54q62 18 191 41q1 8 10 52t15 79q50 291 131 411q83 122 227 122q108 0 228 -100q118 -99 118 -200q0 -102 -51 -102q-37 0 -87 61q-44 53 -104 120q-55 61 -100 61q-103 0 -198 -426l-13 -53q249 32 388 32q133 0 133 -100q0 -50 -93 -347 q-100 -320 -125 -406q-33 -113 -86 -113q-31 0 -50 27q-19 26 -19 64q0 35 35 170q18 68 82 307q48 179 65 253q-99 -5 -371 -53q-141 -589 -198 -711q-30 -63 -53 -63t-56 38q-33 37 -33 64q0 24 23 104q95 318 143 537q-102 -18 -131 -18q-28 0 -61 30t-33 65z" />
<glyph unicode="&#xfb02;" horiz-adv-x="1112" d="M96 885q0 48 144 63l69 10q30 152 53 331q21 160 94 239q72 78 168 78q94 0 143 -51q48 -49 48 -123t-49 -74q-23 0 -50 44t-71 44t-71 -66q-27 -67 -48 -201q-28 -179 -30 -192q110 18 181 42q70 24 130 69q117 86 117 297t51 211q43 0 86 -43t43 -107q0 -157 -59 -502 q-60 -348 -140 -632q-83 -291 -137 -291q-33 0 -60 35q-28 36 -28 71q0 38 37 158q122 416 160 676q-124 -108 -414 -154q-141 -718 -266 -751q-29 -6 -39 20q-14 6 -27 25q-12 19 -8 42q6 31 58 244q50 204 93 396q-38 -2 -70 -2q-43 0 -75 33q-33 34 -33 61z" />
<glyph horiz-adv-x="0" />
<glyph horiz-adv-x="0" />
<glyph unicode="&#xd;" horiz-adv-x="821" />
<glyph unicode=" "  horiz-adv-x="821" />
<glyph unicode="&#x09;" horiz-adv-x="821" />
<glyph unicode="&#xa0;" horiz-adv-x="821" />
<glyph unicode="!" horiz-adv-x="759" d="M139 165q0 41 35 85q34 43 70 43q34 0 84 -99q49 -98 49 -149q0 -15 -21 -33t-39 -18q-51 0 -114 64q-64 66 -64 107zM291 586q-2 14 25 147q32 160 59 380q31 253 31 493q0 53 32 53q40 0 107 -49t67 -78q0 -172 -89 -612q-89 -439 -142 -439q-34 0 -62 34t-28 71z" />
<glyph unicode="&#x22;" horiz-adv-x="677" d="M123 1199q0 15 18 187q19 182 19 308q0 39 24 39q25 0 68 -34t43 -54q0 -104 -32 -310q-31 -202 -70 -202q-23 0 -47 25q-23 24 -23 41zM469 1199q0 15 18 187q19 182 19 308q0 39 29 39q23 0 64 -34q42 -35 42 -54q0 -103 -31 -311q-30 -201 -71 -201q-21 0 -45 25 q-25 27 -25 41z" />
<glyph unicode="#" horiz-adv-x="1343" d="M111 387q0 51 233 90q95 385 111 461q-132 -23 -158 -23q-28 0 -51 35t-23 66q0 57 269 96q40 209 40 282q0 70 8 84q7 13 35 13q30 0 82 -49q54 -51 54 -109q0 -57 -29 -196q159 14 272 20q33 174 33 240t7 80t37 14t82 -49t52 -105q0 -58 -22 -172q50 2 88 2 q129 0 129 -59q0 -51 -248 -84q-42 -180 -123 -487q70 2 130 2q77 0 103 -15q25 -15 25 -45q0 -31 -67 -50q-64 -18 -232 -40l-33 -125q-73 -280 -131 -280q-27 0 -46 35t-19 77q-7 31 53 271q-113 -16 -145 -19q-96 -11 -152 -20q-77 -288 -110 -330q-37 -37 -76 27 q-25 41 -25 92q-4 11 35 184q-94 -14 -121 -14q-20 0 -44 35q-23 33 -23 65zM524 502q101 11 289 24q76 302 111 473q-39 -5 -138.5 -16.5t-140.5 -17.5q-33 -138 -121 -463z" />
<glyph unicode="$" horiz-adv-x="1093" d="M47 307q0 76 43 76q22 0 66 -45q45 -47 103 -93q61 -49 128 -55q17 66 129 453q-135 94 -209 167q-74 72 -74 137t18 123q18 59 42 83q130 130 430 209q38 120 72 181q30 54 70 53t40 -72q0 -51 -28 -135h26q58 0 96 -59q37 -58 37 -116q0 -32 -28 -32q-13 0 -43 9t-60 9 q-24 0 -90 -8q-84 -266 -135 -451q141 -100 225 -190q82 -88 82 -184q1 -147 -159 -246q-160 -98 -361 -109q-55 -157 -92 -157q-21 0 -33 18q-23 38 4 147q-127 27 -213 119t-86 168zM405 983q0 -49 160 -162q5 16 16.5 58t33.5 119.5t44 154.5q-110 -38 -181 -84 q-73 -47 -73 -86zM524 199q125 17 202 62q79 46 79 114q0 67 -176 192q-53 -187 -105 -368z" />
<glyph unicode="%" horiz-adv-x="1822" d="M197 907q0 193 119 355q120 163 259 163q47 0 91 -24q88 -54 169 -60q79 -6 216 48q127 50 236 110q103 57 127 57q23 0 56 -55t28 -100q-4 -43 -72 -146q-59 -89 -220 -306q-159 -214 -372 -517q-207 -295 -281 -387q-61 -76 -83 -73t-43 35q-21 31 -19 56t41 89 q48 77 125 189q100 145 171 245q183 258 500 710q-197 -117 -381 -102q-22 0 -71 12q14 -59 14 -112q0 -176 -125 -325q-124 -148 -268 -148q-88 0 -153 89q-64 88 -64 197zM360 922q0 -55 23 -98q23 -42 59 -42q59 0 132 94t73 188q0 97 -25 148q-26 54 -59 54 q-59 0 -131 -114t-72 -230zM1051 307q0 193 119 355q120 163 257 163q99 0 165 -103q67 -105 67 -230q0 -176 -125 -324t-268 -148q-85 0 -151 90q-64 88 -64 197zM1212 322q0 -58 23 -99t61 -41q59 0 131 93t72 189q0 97 -25 148q-26 54 -59 54q-59 0 -131 -114t-72 -230z " />
<glyph unicode="&#x26;" horiz-adv-x="1441" d="M31 257q0 85 360 378q5 5 17 14q2 2 7 6.5t8 6.5q12 10 17 14q-73 179 -73 335t112 269q113 115 285 115q130 0 187 -79q57 -80 57 -175q0 -182 -375 -506q52 -113 127 -211q84 57 219 156q263 190 291 190q63 0 63 -68q0 -38 -135 -157q-142 -124 -319 -244 q138 -115 286 -115q102 0 138 -10t36 -39q0 -96 -197 -96q-199 0 -390 178q-327 -201 -486 -201q-78 0 -157 77q-78 77 -78 162zM211 228q0 -20 16 -35q17 -15 41 -15q108 0 367 166q-65 80 -125 186q-250 -208 -274 -244q-25 -38 -25 -58zM547 996q0 -95 31 -205 q247 219 247 333q0 50 -25 82q-26 33 -77 33q-77 0 -126 -72q-50 -73 -50 -171z" />
<glyph unicode="'" horiz-adv-x="296" d="M125 1200q0 22 23 189q24 174 24 305q0 39 26 39q25 0 71 -34t46 -54q0 -92 -41 -309q-14 -72 -27 -118t-26 -67.5t-26 -17.5q-22 0 -45 26q-25 28 -25 41z" />
<glyph unicode="(" horiz-adv-x="993" d="M164 572q0 196 76 396q79 207 186 346q116 150 233 256q123 111 223 167q98 55 141 55t74 -30t31 -59q0 -30 -58 -79q-58 -50 -144 -111q-97 -70 -189 -159q-107 -104 -188 -209q-87 -113 -145 -273q-58 -161 -58 -312q0 -150 42 -252q42 -101 105 -163q64 -63 136 -111 q77 -52 137 -79q145 -69 145 -114q0 -44 -59 -44q-98 0 -213 50q-112 49 -223 141q-108 90 -180 240t-72 344z" />
<glyph unicode=")" horiz-adv-x="1032" d="M-66 -143q0 35 193 204q191 163 360 414q85 124 140 288t55 311q0 149 -34 239q-35 93 -82 143q-48 51 -97 88q-44 33 -83 69q-34 31 -34 62q0 88 115 88q137 0 271 -176t134 -418q0 -200 -56 -386q-58 -193 -144 -331q-89 -144 -194 -265q-103 -119 -206 -199 q-212 -166 -290 -166q-48 0 -48 35z" />
<glyph unicode="*" horiz-adv-x="731" d="M207 1241q0 11 37 27q65 29 97 43q64 29 95 49q-58 22 -136 83q-77 60 -77 85q0 24 21 24q98 0 116 -39q7 -14 44 -55q35 -38 61 -51v186q0 31 27 31q20 0 50 -27q29 -26 29 -44q0 -23 -36 -148q32 20 75 56q10 9 25.5 21.5t26 21.5t18.5 15q27 21 42 21q17 0 37 -17 q21 -18 21 -36q0 -13 -78 -56q-85 -47 -147 -73q29 -24 75 -50q37 -21 79 -46q30 -18 30 -30t-15 -24t-34 -12q-20 0 -72 33q-54 34 -100 74q-7 -58 -30 -143q-21 -77 -37 -77t-32 16t-16 27q0 9 10 44q14 49 22 73q13 39 18 64q-36 -32 -106 -72q-73 -41 -90 -41t-34 15 q-16 15 -16 32z" />
<glyph unicode="+" horiz-adv-x="1228" d="M113 698q0 43 57 43q282 0 408 9q18 154 36 370q2 62 41 62q38 0 98 -58q58 -57 58 -99q0 -45 -49 -263q291 24 338 24q141 0 141 -45q0 -90 -516 -141q-80 -381 -90 -412q-15 -45 -37 -45q-28 0 -61 40q-33 41 -33 72q0 32 6 68q10 60 19 110q17 94 26 153 q-190 -13 -315 -13q-49 0 -88 41q-39 40 -39 84z" />
<glyph unicode="," horiz-adv-x="466" d="M14 -332q0 24 43 74q129 153 129 256q0 33 -25 54q-34 28 -52 40q-27 18 -27 46q0 27 35 70q35 42 73 42q66 0 116 -61t50 -136q0 -130 -110 -271q-111 -142 -191 -142q-41 0 -41 28z" />
<glyph unicode="-" horiz-adv-x="940" d="M109 594q0 45 231 87t401 42q123 0 123 -51q0 -33 -66 -54q-56 -18 -322 -71q-255 -51 -278 -51q-24 0 -57 34q-32 33 -32 64z" />
<glyph unicode="." horiz-adv-x="485" d="M115 165q0 45 36 88q36 44 73 44q39 0 88 -100q50 -102 50 -152q0 -16 -22 -37q-21 -20 -43 -20q-51 0 -117 66q-65 65 -65 111z" />
<glyph unicode="/" horiz-adv-x="724" d="M31 -41q0 112 647 1612q2 6 6 15q3 6 6 15q1 3 5 11q3 7 6 8q4 2 8 6q5 4 24 4t65 -61t46 -108q0 -48 -52 -168q-61 -141 -154 -334q-97 -202 -226 -515q-116 -283 -194 -452q-69 -150 -92 -150t-59 44t-36 73z" />
<glyph unicode="0" horiz-adv-x="1024" d="M106 412q0 246 92 501q92 256 229 415q138 161 267 161t200 -122t71 -340t-79 -445q-79 -226 -210 -386q-130 -159 -257 -159q-126 0 -219 116q-94 117 -94 259zM297 434q0 -235 125 -235q58 0 144 131q85 130 150 323q64 191 64 346q0 322 -94 322q-43 0 -109 -85 q-70 -91 -130 -212q-62 -126 -106 -290q-44 -165 -44 -300z" />
<glyph unicode="1" horiz-adv-x="643" d="M139 140q0 42 44 212q47 183 100 459q53 279 75 612q6 64 48 64q44 0 97 -57q52 -56 52 -97q0 -224 -104 -631q-33 -121 -52 -202q-23 -97 -47 -194q-16 -66 -41 -146q-41 -146 -80 -146q-28 0 -60 41t-32 85z" />
<glyph unicode="2" horiz-adv-x="1189" d="M84 217q0 50 197 197q181 132 362 315q80 82 140 190q57 103 57 190t-39 136t-107 49q-66 0 -127 -41q-56 -38 -96 -81q-36 -39 -47 -39q-36 0 -82 30q-47 30 -47 62q0 77 126 168q127 92 269 92q144 0 239 -102q95 -103 95 -250q0 -442 -758 -928q13 2 208 31 q122 18 279 40q124 17 176 17q56 0 86 -9q29 -9 29 -38q0 -58 -308 -130q-312 -73 -451 -73q-64 0 -132 56q-69 57 -69 118z" />
<glyph unicode="3" horiz-adv-x="1169" d="M70 102q0 19 121 49q46 11 141 33t127 30q147 35 267 109q122 75 122 173q0 52 -74 87q-68 32 -164 48q-237 35 -237 82q0 17 6 24q17 30 104 80q103 59 180 101q87 47 166 129q76 79 76 161q0 97 -104 97q-82 0 -213 -67t-147 -67q-17 0 -64 44t-47 67q0 61 167 127 t296 66t218 -89t89 -201q0 -113 -129 -232q-126 -116 -299 -197q185 -24 297 -92q110 -67 110 -180q0 -112 -130 -220q-133 -110 -315 -170q-184 -61 -375 -61q-189 0 -189 69z" />
<glyph unicode="4" horiz-adv-x="1128" d="M147 707q0 90 69 228q69 139 157 256q87 116 174 205q85 87 120 87q32 0 65 -25q32 -24 32 -54q0 -29 -109 -158q-115 -136 -217 -283q-108 -156 -108 -248q0 -113 114 -113q98 0 243 53q42 15 78.5 29t53.5 20l17 7q24 166 24 313q0 66 43 66q32 0 86 -49q53 -48 53 -89 q0 -186 -118 -580q-119 -397 -187 -397q-23 0 -44 30t-21 64t18 97q21 75 52 168q36 108 57 194q-194 -88 -371 -88q-118 0 -200 71q-81 71 -81 196z" />
<glyph unicode="5" horiz-adv-x="1099" d="M59 328q0 59 33 59q13 0 60 -47q139 -139 242 -139q104 0 226 96q121 96 121 192q0 88 -151 193q-82 58 -124 89q-63 47 -107 110q-44 64 -44 146t95 236q94 152 155 167q122 36 344 36q299 0 299 -63q0 -45 -352 -100q-140 -21 -196 -34q-39 -9 -94 -109 q-54 -99 -54 -143q0 -45 43 -92q48 -53 105 -95q84 -62 126 -95q148 -118 148 -227q0 -173 -164 -320t-344 -147q-142 0 -254 96q-113 96 -113 191z" />
<glyph unicode="6" horiz-adv-x="1138" d="M96 364q0 147 98 355q96 204 222 368t240 275q116 113 158 113q41 0 83 -22q41 -21 41 -43q0 -20 -70 -95q-280 -296 -391 -459q228 -21 378 -120q151 -100 151 -210q0 -171 -199 -328t-416 -157q-129 0 -212 87q-83 88 -83 236zM279 346q0 -70 35 -104q37 -35 96 -35 q134 0 265 96q130 96 130 207q0 77 -110 143q-109 65 -292 88q-124 -218 -124 -395z" />
<glyph unicode="7" horiz-adv-x="944" d="M203 1403q0 21 169 45q177 25 331 25q162 0 206 -29q36 -28 61 -85t25 -95t-19 -83q-22 -53 -56 -111q-46 -79 -73 -123q-26 -42 -85 -137q-40 -65 -94 -156q-60 -102 -151 -271q-89 -166 -156 -275q-49 -81 -76 -81q-28 0 -52 38t-24 74q0 69 151 325q147 248 305 506 q152 247 152 292q0 36 -68 36q-73 0 -220 -22q-153 -23 -191 -23q-42 0 -88 57q-47 58 -47 93z" />
<glyph unicode="8" horiz-adv-x="1232" d="M186 289q0 94 101 210q103 118 278 261q-298 231 -348 305q-29 41 -29 77q0 35 12 71t29 36q19 0 52 -34l20.5 -20.5l22 -22l17.5 -17.5q27 -27 90 -78q60 -48 142 -112q79 -61 123 -99q98 77 183 150q53 45 117 121q57 67 57 112q0 78 -104 78q-101 0 -236 -50t-162 -50 q-29 0 -73 30t-44 60q0 62 158 119t317 57t242 -66q82 -66 82 -175q0 -108 -107 -229q-105 -118 -297 -271q191 -180 191 -308q0 -100 -89 -195q-91 -97 -215 -150q-126 -54 -229 -54q-102 0 -201 75q-100 76 -100 169zM369 300q0 -40 35 -69q36 -30 79 -30q112 0 233 83 q120 82 120 187q0 56 -136 178q-81 -65 -170 -138q-54 -45 -110 -112q-51 -61 -51 -99z" />
<glyph unicode="9" horiz-adv-x="999" d="M141 872q0 114 80 262q77 143 208 249q128 104 243 104q114 0 176 -77q61 -76 61 -157q0 -83 -14 -125q68 -12 68 -86q0 -40 -53 -176q-52 -135 -84 -231q-32 -97 -69 -271q-37 -172 -62 -265q-24 -89 -50 -89q-70 0 -70 164t111 522q-150 -114 -262 -114q-113 0 -198 88 t-85 202zM303 850q0 -52 36 -82q37 -31 74 -31q38 0 62 6t49 20q39 22 44 25q16 10 43 37q9 9 21.5 22t16.5 17q10 10 38 45q6 8 13.5 17.5t12.5 16t8 9.5q3 5 59 84q-47 6 -47 37l19 137q0 44 -22 75q-21 30 -60 30q-109 0 -238 -172t-129 -293z" />
<glyph unicode=":" horiz-adv-x="503" d="M80 199q0 48 29 97q29 48 59 48q49 0 97 -116t48 -183q0 -24 -16 -41q-17 -18 -41 -18q-48 0 -112 82t-64 131zM236 904q0 50 29 96q31 49 59 49q51 0 99 -117t48 -162q0 -82 -57 -82q-47 0 -113 84q-65 83 -65 132z" />
<glyph unicode=";" horiz-adv-x="626" d="M8 -369q0 22 43 72q129 153 129 258q0 34 -26 54q-22 17 -53 39q-25 18 -25 45t35 71q34 43 73 43q66 0 116 -60q50 -61 50 -137q0 -129 -110 -272t-191 -143q-41 0 -41 30zM260 904q0 48 30 96q31 49 58 49q48 0 98 -117q50 -118 50 -162q0 -45 -18 -63q-19 -19 -42 -19 q-46 0 -111 84q-65 85 -65 132z" />
<glyph unicode="&#x3c;" horiz-adv-x="1103" d="M166 598q0 35 22 83t48 71q105 88 386 223q282 135 384 135q43 0 70 -34q28 -36 28 -54q0 -21 -10 -31q-13 -13 -135 -59q-116 -43 -347 -156q-227 -111 -227 -153q0 -35 147 -115q162 -88 296 -158q149 -78 149 -108q0 -43 -75 -43t-252 72q-180 73 -331 171 q-153 99 -153 156z" />
<glyph unicode="=" horiz-adv-x="1292" d="M117 492q0 34 389 79q388 45 525 45q136 0 136 -51q0 -76 -477 -139q-340 -43 -495 -43q-28 2 -53 42t-25 67zM182 893q1 43 319 76q307 32 519 32q203 0 203 -63q0 -34 -89 -55q-88 -21 -425 -60q-336 -39 -447 -39q-26 0 -53 40t-27 69z" />
<glyph unicode="&#x3e;" horiz-adv-x="1148" d="M176 239q0 42 165 139q165 98 330 186q165 89 165 112q0 43 -166 137q-168 95 -273 125q-40 12 -83 64q-44 53 -44 77q0 33 47 33q139 -2 336 -108q194 -105 318 -226q65 -65 65 -121q0 -79 -321 -254q-20 -13 -39 -22q-325 -184 -438 -184q-62 0 -62 42z" />
<glyph unicode="?" horiz-adv-x="1060" d="M276 166q0 42 35 85q35 42 70 42t84 -99q49 -98 49 -149q0 -16 -20 -33q-21 -18 -39 -18q-50 0 -114 64q-65 65 -65 108zM365 1325q0 113 100 201t233 88q134 0 227 -84t93 -227q0 -87 -56 -177q-57 -92 -126 -159q-206 -203 -255 -324q-48 -118 -69 -137 q-19 -17 -33 -17q-51 0 -51 132q0 83 65 180q66 99 141 169q73 69 141 162q65 89 65 156t-44 108q-43 40 -108 40q-63 0 -111 -39q-49 -40 -49 -99l4 -53q0 -24 -25 -36q-23 -11 -45 -11q-20 0 -59 47q-38 45 -38 80z" />
<glyph unicode="@" horiz-adv-x="1976" d="M88 260q0 202 84 416q85 218 230 398q148 184 369 302q223 119 472 119q288 0 457 -182q170 -184 170 -467q0 -134 -54 -264q-54 -131 -138 -227q-82 -95 -183 -153q-101 -59 -176 -59t-122 42q-45 40 -60 108q-184 -193 -310 -193q-93 0 -182 79q-90 79 -90 165t54 212 t135 240q80 112 188 193q107 80 199 80q90 0 167 -89q76 -88 76 -161t-43 -135q31 -36 31 -61q0 -28 -34 -112t-34 -122q0 -35 17 -60q17 -24 50 -24t90 42q58 43 110 111q54 71 92 170q39 102 39 206q0 220 -112 359q-111 138 -323 138t-396 -101t-311 -258 q-126 -156 -201 -345t-75 -376q0 -185 112 -308q111 -121 312 -121q233 0 443 74q69 24 88 24q26 0 26 -29q0 -84 -190 -156q-193 -73 -365 -73q-262 0 -437 175t-175 423zM717 340q0 -36 31 -62t67 -26q93 0 220 132q129 134 169 310q6 29 35 31v14q-6 72 -31 124 q-24 50 -63 50q-76 0 -179 -109t-176 -247t-73 -217z" />
<glyph unicode="A" d="M86 542q0 39 203 105q29 65 53 133q40 100 131 320q98 237 107 259q22 56 78 96t110 40q64 0 114 -203q52 -213 81 -501q57 6 100 6q92 0 92 -54q0 -39 -180 -90q16 -207 16 -362q0 -258 -65 -258q-35 0 -56 43q-20 41 -32 149q-18 238 -31 385q-159 -42 -168 -44 q-106 -27 -229 -62q-180 -471 -213 -471q-34 0 -71 40q-38 41 -38 85q0 21 117 291h-15q-42 0 -72 26q-32 27 -32 67zM485 700q145 39 308 66q-38 352 -72 526q-97 -224 -236 -592z" />
<glyph unicode="B" horiz-adv-x="1304" d="M12 228q0 59 35 59q8 0 81 -44q74 -45 153 -46q-31 16 -55 53q-25 38 -25 74q0 37 49 194q152 482 156 739h-17q-37 0 -76 47q-39 46 -39 74q0 36 87 61q85 25 210 25q287 0 443 -78q155 -78 155 -225q0 -123 -103 -223t-302 -162l18 -2q173 -11 284 -84 q112 -74 112 -170q0 -120 -125 -234q-124 -113 -324 -183q-195 -68 -405 -68q-122 0 -216 67q-96 69 -96 126zM313 197q148 5 305 52q161 49 271 126t110 153q0 62 -142 104q-143 42 -284 42q-55 0 -96 57q-124 -493 -164 -534zM500 813q54 33 153 71q109 42 165 70 q60 30 88 55q30 26 53 62q26 40 26 80q0 67 -69 105q-70 38 -165 38q-97 0 -237 -24q57 -62 57 -118q0 -61 -71 -339z" />
<glyph unicode="C" horiz-adv-x="1226" d="M133 440q0 193 126 436q126 242 324 418q199 176 380 176q52 0 109 -67q56 -66 56 -112q0 -44 -15 -44q-12 0 -58 16q-43 15 -78 15q-81 0 -194 -82q-114 -82 -215 -203q-101 -120 -173 -275q-71 -152 -71 -267q0 -113 58 -165q59 -53 153 -53q90 0 194 28q96 26 164 63 q163 88 180 88q35 0 35 -46q0 -47 -94 -123q-97 -79 -234 -139q-138 -61 -250 -61q-143 0 -270 124t-127 273z" />
<glyph unicode="D" horiz-adv-x="1320" d="M164 230q0 67 119 495q119 426 129 561q-67 27 -105 70q-39 44 -39 82q0 39 41 39q192 0 411 -101q220 -102 376 -277q157 -176 157 -368q0 -124 -173 -294q-172 -169 -400 -289q-226 -119 -377 -119q-39 0 -89 66q-50 67 -50 135zM342 213q138 18 316 124 q177 106 291 226q116 122 116 191q0 126 -152 275q-151 148 -352 214q10 -36 10 -87q0 -54 -35 -187q-44 -167 -130 -459q-41 -142 -64 -297z" />
<glyph unicode="E" horiz-adv-x="1198" d="M129 225q0 85 60 287q65 220 122 432q62 231 62 387q0 21 8 47q34 76 446 76t412 -59q0 -41 -88 -56q-54 -11 -196 -25q-32 -3 -70.5 -7t-62.5 -6.5t-38 -3.5q-52 -5 -237 -37v-7q0 -140 -76 -419q24 -3 83 -3q65 0 189 11q113 10 180 10q60 0 60 -29q0 -71 -168 -106 q-170 -35 -389 -35q-111 -350 -111 -424q0 -24 16 -40q15 -15 40 -15q237 0 520 76q91 24 106 24q31 0 31 -43q0 -73 -226 -151t-437 -78q-95 0 -165 55q-71 56 -71 139z" />
<glyph unicode="F" horiz-adv-x="1071" d="M115 186q0 43 117 512q117 471 122 633q0 31 15 49q21 44 121 62q102 18 297 18q202 0 308 -20q111 -21 111 -58q0 -23 -35 -34q-42 -13 -61 -16q-44 -7 -70 -10q-72 -7 -79 -8q-37 -3 -96 -9q-17 -2 -53 -6l-54 -6q-48 -4 -133 -15q-83 -10 -109 -12q2 -8 2 -19 q0 -93 -80 -442q42 -2 87 -2q89 0 187 8q147 12 179 12q78 0 78 -32q0 -63 -177 -107q-175 -43 -389 -43h-4q-6 -28 -40 -164q-25 -100 -46 -187q-3 -11 -6.5 -26t-6 -26t-4.5 -19q-9 -32 -15 -60q-6 -29 -16 -54q-5 -13 -13 -37q-12 -35 -25 -35q-26 0 -69 58t-43 95z" />
<glyph unicode="G" horiz-adv-x="1251" d="M94 391q0 207 131 461q129 251 330 435q197 181 373 181q57 0 112 -68q56 -70 56 -111q0 -42 -23 -42q-3 0 -45 16q-39 15 -84 15q-130 0 -286 -141q-155 -140 -267 -354q-110 -210 -110 -394q0 -73 47 -126q46 -52 110 -52q100 0 231 107q130 107 244 278 q-118 -31 -170 -31q-55 0 -94 30t-39 56q0 33 88 52q91 20 222 20q72 0 119 -63q46 -62 46 -145t-102 -390t-155 -307q-52 0 -52 59q0 57 30 156q40 132 62 201q11 35 29 91t25 78q-101 -170 -228 -269q-128 -99 -247 -99t-236 111t-117 245z" />
<glyph unicode="H" horiz-adv-x="1372" d="M135 193q0 48 90 401q-26 10 -46 36q-19 25 -19 58q0 27 106 60q137 539 137 665q0 33 10 48q9 14 37 14q26 0 73 -64q46 -62 46 -142t-100 -474q263 54 530 71q105 426 105 547q0 62 41 62q35 0 82 -64t47 -132q0 -67 -92 -417q94 -15 94 -56q0 -42 -127 -69 q-46 -167 -89 -335q-5 -21 -18.5 -74t-19.5 -74q-20 -74 -31 -111q-29 -108 -51 -108q-30 0 -67 48q-37 47 -37 99q0 55 122 527q-273 -37 -538 -95q-32 -119 -54 -205q-38 -149 -40 -155q-20 -74 -31 -111q-29 -108 -49 -108q-24 0 -68 54q-43 53 -43 104z" />
<glyph unicode="I" horiz-adv-x="634" d="M139 178q0 40 122 573q123 536 124 658q0 35 9 48t39 13t78 -63t48 -136t-147 -673q-15 -56 -39 -159q-22 -96 -39 -158q-10 -37 -31 -121q-34 -121 -59 -121t-65 49t-40 90z" />
<glyph unicode="J" horiz-adv-x="958" d="M16 338q0 59 37 59q23 0 123 -102q40 -38 94 -69q55 -31 109 -31q67 0 124 142q53 132 156 508q100 365 162 466q-88 -15 -253 -54q-159 -38 -195 -38q-76 0 -76 51q0 69 255 141t374 72q36 0 64 -17t28 -48q0 -30 -29 -115q-124 -361 -166 -504q-134 -486 -202 -629 q-69 -143 -208 -143t-268 114t-129 197z" />
<glyph unicode="K" horiz-adv-x="1210" d="M111 189q0 55 133 569t133 647q0 35 8 51q7 14 38 14t71 -63q41 -64 41 -145t-107 -486q186 254 393 468t262 214q42 0 77 -26q36 -27 36 -53t-97 -114q-74 -67 -261 -249q-160 -156 -281 -320q0 -83 45 -182q72 -164 295 -272q97 -47 151 -80t54 -68q0 -53 -80 -53 q-81 0 -168 34q-90 35 -176 95q-90 63 -161 163q-72 103 -99 222q-64 -114 -119 -297q-67 -217 -82 -217h-2q-29 0 -67 48q-37 47 -37 100z" />
<glyph unicode="L" horiz-adv-x="1118" d="M127 228q0 83 140 567q141 487 141 628q0 32 9 47t39 15q29 0 74 -51t45 -109q0 -141 -176 -725q-88 -280 -88 -338q0 -55 54 -55q233 0 507 76q88 24 106 24q17 0 23 -7q7 -9 7 -28q0 -84 -210 -161q-209 -76 -427 -76q-99 0 -171 57q-73 58 -73 136z" />
<glyph unicode="M" horiz-adv-x="1615" d="M115 197q0 49 132 565t132 647q0 35 9 48t35 13q27 0 89 -55q64 -56 68 -98q7 -72 77 -261q66 -180 160 -380q135 160 289 359q171 221 258 319q84 94 121 94t78 -41t41 -78q0 -28 -9 -84q-8 -49 -27 -124l-35 -133q-9 -34 -50 -175q-39 -132 -53 -189 q-4 -15 -12.5 -47.5t-16.5 -63.5t-15 -61q-34 -145 -39 -166q-12 -51 -32 -126q-30 -119 -59 -119q-27 0 -54 49q-26 48 -26 132q0 85 70 380q70 296 153 520q-376 -471 -464 -563q-87 -92 -143 -92t-106 63q-75 109 -199 504q-35 -218 -76 -367q-15 -56 -33.5 -122.5 t-22.5 -80.5q-5 -18 -12 -45.5t-10 -37.5q-3 -11 -10.5 -36.5t-11.5 -40.5q-14 -51 -21 -73q-2 -7 -9 -28t-11 -34q-13 -43 -17 -54q-7 -21 -15 -39q-17 -35 -25 -35q-23 0 -61 53q-37 52 -37 103z" />
<glyph unicode="N" horiz-adv-x="1386" d="M109 176q0 51 133 577q132 523 137 658q0 66 35 66q21 0 62 -38t59 -83q339 -879 417 -1049q133 351 178 842q21 225 21 244q4 88 42 88t83 -47q45 -46 45 -84q0 -172 -52 -478t-140 -573q-87 -264 -164 -264q-28 0 -61 26q-34 26 -52 66q-69 161 -363 909 q-48 -184 -136 -537q-74 -296 -99 -382q-24 -82 -43 -82q-28 0 -65 46t-37 95z" />
<glyph unicode="O" horiz-adv-x="1255" d="M111 438q0 190 68 379q70 193 172 336q102 141 229 235q124 91 231 91q172 0 287 -157q114 -156 114 -353t-108 -413q-108 -215 -290 -369q-180 -152 -365 -152q-135 0 -237 133q-101 132 -101 270zM297 451q0 -114 49 -184t115 -70q104 0 236 120q137 125 231 298 q96 177 96 335q0 157 -60 256t-143 99q-82 0 -205 -127q-121 -125 -221 -333q-98 -203 -98 -394z" />
<glyph unicode="P" horiz-adv-x="1112" d="M88 169q0 50 59 245q186 616 193 854q-49 45 -49 82q0 52 139 98q141 47 266 47q198 0 323 -100q126 -100 126 -262q0 -222 -212 -375q-212 -154 -560 -221q-150 -506 -178 -506q-29 0 -68 46t-39 92zM418 696q245 66 396 182t151 242q0 90 -69 149q-68 58 -165 58 q-98 0 -233 -61q20 -43 20 -84q0 -117 -100 -486z" />
<glyph unicode="Q" horiz-adv-x="1312" d="M117 438q0 192 67 383q68 193 169 333q102 141 226 229q127 90 232 90q171 0 302 -156q130 -155 130 -351t-102 -410q-101 -212 -262 -355q38 -107 71 -188q42 -104 64 -164q20 -54 20 -87q0 -47 -51 -47q-92 0 -242 391q-123 -65 -256 -65q-131 0 -249 123 q-119 124 -119 274zM297 453q0 -112 67 -185q65 -71 144 -71q78 0 176 71q-145 453 -145 709q0 83 14 139q-111 -135 -183 -315q-73 -183 -73 -348zM707 1087q0 -333 108 -696q102 119 173 274q69 150 69 296q0 143 -74 243q-73 99 -158 99q-31 0 -71 -17q-47 -67 -47 -199z " />
<glyph unicode="R" horiz-adv-x="1196" d="M96 169q0 44 113 443q112 397 129 605q-25 16 -47 51q-21 34 -21 61q0 47 140 97q144 51 308 51q168 0 293 -81q124 -81 124 -229q0 -100 -57 -187t-137 -142q-79 -54 -161 -99q-76 -42 -136 -70q-56 -27 -56 -40q0 -46 70 -117q44 -45 100 -98q11 -10 38.5 -36t37.5 -35 q52 -48 89 -79q35 -29 67 -57q9 -8 26 -23.5t26 -23.5q52 -47 52 -76q0 -49 -68 -49q-123 0 -350 214q-229 215 -279 363q-28 -93 -53.5 -178.5t-39.5 -132.5t-17 -58q-20 -67 -33 -104q-33 -106 -49 -106q-31 0 -70 45t-39 91zM428 721q34 26 133 79q50 27 177 96 q77 42 145 118q65 72 65 153q0 127 -221 127q-99 0 -233 -51q20 -43 20 -82q0 -131 -86 -440z" />
<glyph unicode="S" horiz-adv-x="1087" d="M10 336q0 61 37 61q34 0 129 -98q42 -39 99 -66q63 -30 133 -30q145 0 255 73q111 74 111 160q0 56 -74 142t-162 162q-92 80 -163 165q-74 89 -74 139q0 52 21 109t45 84q80 89 248 162q171 74 284 74q59 0 100 -39t41 -82q0 -21 -43 -33q-55 -15 -130 -32 q-89 -20 -154 -46q-236 -90 -236 -174q0 -45 240 -252q92 -80 167 -185q74 -104 74 -192q0 -167 -151 -281t-347 -114q-197 0 -323 101q-127 102 -127 192z" />
<glyph unicode="T" horiz-adv-x="1095" d="M129 1405q0 37 118 47q113 10 517 10q208 0 341 -45q134 -45 134 -100q0 -39 -68 -39q-58 0 -188 8q-143 9 -231 10q6 -21 6 -45q0 -72 -160 -704q-9 -38 -49 -205q-35 -148 -49 -195q-28 -108 -51 -108q-32 0 -69 46q-38 47 -38 93q0 48 111 485t129 631l-351 -16 q-33 0 -67 43q-35 44 -35 84z" />
<glyph unicode="U" horiz-adv-x="1224" d="M174 434q0 160 86 509t86 468q0 34 8 48t38 14q29 0 79 -55q49 -53 49 -127q0 -70 -83 -396t-83 -439q0 -117 43 -188t111 -71t149 77q83 78 153 204q72 128 119 307q48 181 48 366q0 86 -9 172q-10 95 -10 107q0 43 37 43q47 0 109 -71q61 -70 61 -181q0 -314 -92 -592 q-92 -277 -248 -442q-155 -164 -331 -164q-131 0 -225 124q-95 125 -95 287z" />
<glyph unicode="V" horiz-adv-x="1089" d="M141 1407q0 63 35 63q42 0 88 -44q45 -44 72 -111q12 -38 60 -409q47 -366 110 -605q130 369 338 770q207 399 272 399q34 0 66 -23t32 -57q0 -35 -37 -108q-21 -42 -130 -236q-97 -173 -158 -294q-57 -113 -124 -257q-23 -49 -55 -119.5t-37 -81.5q-39 -84 -67 -142 q-66 -125 -108 -125q-26 0 -60 40t-55 91q-56 138 -149 635q-93 498 -93 614z" />
<glyph unicode="W" horiz-adv-x="1601" d="M147 226q0 78 56 506q55 421 55 663q0 75 45 75t106 -53q60 -53 60 -97t-69 -433q-68 -382 -85 -611q123 209 282 391q156 179 224 179q70 0 97 -307q11 -122 39 -211q30 -97 81 -97q114 0 200 186q85 185 85 410q0 250 -111 385q-57 72 -126 72q-67 0 -116 47 q-48 47 -48 82q0 60 98 60q239 0 362 -191q123 -190 123 -479t-142 -525q-143 -237 -329 -237q-130 0 -192 147q-62 148 -80 420q-58 -82 -197 -274q-213 -295 -299 -295q-32 0 -76 53q-43 52 -43 134z" />
<glyph unicode="X" horiz-adv-x="1277" d="M51 111q0 15 2 21q0 1 7 12q2 3 5 7t4 5q2 3 31 32q164 178 426 521q-276 498 -276 708q0 56 29 56q59 0 117 -30q59 -30 59 -69q0 -189 184 -514q293 404 384 502q95 102 153 102q25 0 65 -43q41 -44 41 -64q0 -22 -13 -34t-42 -33q-30 -22 -49 -41q-75 -72 -445 -549 q61 -99 160 -246q91 -136 150 -236q47 -80 47 -112q0 -31 -17 -50q-16 -17 -37 -17q-51 0 -169 146q-114 142 -251 366q-120 -158 -138 -182q-32 -41 -66 -87q-21 -28 -57 -72q-8 -10 -26.5 -31t-22.5 -26q-24 -28 -46 -50q-11 -11 -39 -33q-38 -29 -68 -29q-33 0 -67 27 q-35 27 -35 43z" />
<glyph unicode="Y" horiz-adv-x="1177" d="M188 1323q0 143 82 143q34 0 53 -63q19 -61 48 -182q29 -122 75 -219q46 -98 113 -168t111 -70q37 0 134 175q108 195 199 351q102 176 144 176q43 0 70 -30q26 -29 26 -74q0 -43 -78 -172q-69 -114 -209 -341q-134 -217 -262 -460q-130 -247 -180 -309t-80 -62 q-45 0 -45 74q0 57 57 174q20 38 29 59q6 14 33 66q7 13 19 35.5t16 31.5q4 8 17 32.5t21 40.5q26 51 38 73q-119 29 -223 153q-101 120 -154 272q-54 154 -54 294z" />
<glyph unicode="Z" horiz-adv-x="1269" d="M121 253q0 68 89 172q87 102 215 210q45 38 129.5 109t121.5 102q305 252 305 340q0 38 -93 64q-95 26 -199 26q-105 0 -194 -15q-94 -16 -110 -16q-44 0 -88 47q-43 46 -43 86q-2 19 31.5 34.5t103.5 29.5q72 12 166 12q218 0 401 -61q80 -27 138 -97q57 -69 57 -135 t-85 -175q-84 -108 -207 -217q-115 -102 -245 -210q-104 -86 -207 -182q-85 -79 -85 -105q0 -25 14 -39t39 -14q112 0 347 34t308 34q70 0 70 -49q0 -66 -256 -130q-258 -65 -516 -65q-78 0 -143 71q-64 70 -64 139z" />
<glyph unicode="[" horiz-adv-x="927" d="M154 38q0 70 99 388q102 326 198 655q98 334 98 457q0 10 2 16v2q1 51 82 69q75 17 239 17q254 0 254 -69q0 -27 -20 -37q-22 -11 -37 -15q-25 -7 -46 -10q-20 -3 -56 -7q-27 -3 -72 -9q-119 -16 -170 -29q2 -8 2 -16q0 -160 -246 -911q-131 -411 -131 -456q0 -46 51 -46 q56 0 167 13t134 13q39 0 39 -36q0 -55 -130 -107q-132 -53 -223 -53q-93 0 -164 50q-70 49 -70 121z" />
<glyph unicode="\" horiz-adv-x="1228" d="M254 1461q0 47 46 108t71 61q23 0 35 -24q9 -19 14 -35q647 -1500 647 -1612q0 -29 -36 -73t-59 -44t-92 150q-78 169 -194 452q-129 313 -226 515q-93 193 -154 334q-52 120 -52 168z" />
<glyph unicode="]" horiz-adv-x="921" d="M-10 6q0 37 41 37t135 -12q102 -13 148 -13q56 0 63 45q262 1073 262 1293q0 12 2 22l-106 2q-145 0 -183 2q-90 8 -90 45q0 53 106 85q107 32 236 32q236 0 236 -88v-10q0 -313 -269 -1440q-23 -86 -75 -123t-161 -37q-104 0 -226 51q-119 50 -119 109z" />
<glyph unicode="^" horiz-adv-x="864" d="M113 1204q0 104 128 316q127 211 195 211q31 0 73 -15q43 -15 58 -32q16 -18 28 -47q7 -17 35 -98q27 -76 82 -210q58 -140 58 -160q0 -36 -33 -36q-75 0 -270 401q-86 -87 -170 -254q-58 -116 -75 -127q-18 -12 -39 -12q-23 0 -46 20q-24 21 -24 43z" />
<glyph unicode="_" d="M90 65q0 36 162 54t410 18q246 0 380 -24q91 -17 91 -60q0 -34 -111 -49q-187 -21 -353 -23q-164 -2 -305 -13q-136 -11 -185 -11q-35 0 -62 36t-27 72z" />
<glyph unicode="`" horiz-adv-x="436" d="M20 1628q0 24 31 63q30 38 68 38q26 0 78 -54q15 -19 34 -39q30 -32 37 -39q134 -135 144 -167q4 -9 4 -28q0 -18 -18 -36t-36 -18q-19 0 -39 13q-23 15 -61 44q-10 7 -23 17.5t-22 17.5t-16 12q-35 26 -49 35q-7 4 -16 10.5t-14 10t-9 5.5q-10 6 -31 22q-4 3 -10.5 8 t-10.5 8t-7 5q-8 7 -18 20q-9 13 -12 19q-4 10 -4 33z" />
<glyph unicode="a" horiz-adv-x="960" d="M14 279q0 123 90 304t234 322q145 142 270 142q91 0 170 -94q78 -93 78 -168q0 -74 -51 -152q24 -30 24 -53q0 -60 -25 -197q-28 -153 -31 -182q-5 -43 -9 -69q-6 -34 -10 -50q-8 -51 -37 -51q-37 0 -61 64q-22 60 -27 167q-183 -231 -338 -231q-95 0 -186 81t-91 167z M186 279q0 -36 29 -57t68 -21q96 0 217 130q122 131 168 316q6 31 34 37v2q0 191 -75 191q-81 0 -187 -114q-108 -115 -180 -257q-74 -145 -74 -227z" />
<glyph unicode="b" horiz-adv-x="1075" d="M45 158q0 36 65 266t129 548q64 319 64 587q0 61 45 61q34 0 80 -60q47 -61 47 -118q0 -257 -110 -719q243 330 442 330q97 0 163 -95q66 -94 66 -224q0 -132 -74 -298q-75 -169 -202 -288q-126 -119 -266 -119t-275 141l-2 -2q-45 -137 -65 -137q-29 0 -68 44 q-39 43 -39 83zM274 311q96 -123 203 -123q133 0 261 182t128 382q0 120 -73 120q-120 0 -266 -165t-253 -396z" />
<glyph unicode="c" horiz-adv-x="911" d="M66 345q0 127 86 296t222 287q137 119 265 119q84 0 147 -76q64 -78 64 -133q0 -17 -10 -28t-30 -11t-69 37q-48 36 -88 36q-112 0 -258 -194q-147 -195 -147 -340q0 -63 40 -100t129 -37t164 21q70 20 115 43q42 22 64 22q39 0 39 -39q0 -58 -143 -138 q-142 -79 -262 -79q-119 0 -224 93q-104 92 -104 221z" />
<glyph unicode="d" horiz-adv-x="1021" d="M37 283q0 129 68 302t198 318q129 144 275 144q145 0 202 -175q104 431 115 687q0 61 45 61q33 0 81 -60t48 -114q0 -53 -51 -302q-49 -241 -119 -515q-147 -598 -194 -598q-29 0 -63 36q-34 35 -34 62t15 107q-201 -205 -351 -205q-90 0 -162 82q-73 84 -73 170z M205 276q0 -37 26 -59t64 -22q79 0 216 114q136 114 198 271l6 24v10q0 109 -38 187q-37 76 -91 76q-88 0 -180 -109q-94 -111 -147 -249q-54 -141 -54 -243z" />
<glyph unicode="e" horiz-adv-x="921" d="M39 367q0 145 78 304q79 161 200 267q124 109 244 109t220 -115t100 -224q0 -110 -118 -179q-117 -68 -266 -68t-270 33q-28 -88 -28 -161q0 -71 44 -110q43 -39 145 -39q101 0 209 36t118 36q53 0 53 -41q0 -55 -125 -120q-124 -64 -244 -64q-159 0 -260 95 q-100 94 -100 241zM274 610q82 -18 187 -18t182 34q78 34 78 89q0 54 -50 112t-100 58q-75 0 -157 -79q-84 -81 -140 -196z" />
<glyph unicode="f" horiz-adv-x="770" d="M63 823q0 35 93 62q133 32 163 37q14 66 31 151q50 285 133 408q84 125 228 125q102 0 168 -81q65 -80 65 -191q0 -109 -57 -109q-50 0 -80 110q-11 41 -35 76t-59 35t-64 -32t-51 -91q-59 -164 -82 -303l-16 -72q73 10 150 10q76 0 109 -16q34 -16 34 -41q0 -38 -68 -59 q-67 -21 -264 -54q-144 -585 -199 -702q-28 -59 -51 -59q-27 0 -57 39q-31 40 -31 63q0 27 20 96q105 379 140 527q-88 -21 -121 -21q-32 0 -66 29q-33 28 -33 63z" />
<glyph unicode="g" horiz-adv-x="972" d="M-31 -270q0 31 20 65q20 33 41 33q20 0 48 -31q23 -26 50 -66q25 -38 72 -67q50 -31 93 -31q44 0 67 14q22 13 43 43q19 27 35 59q12 24 32 84q15 46 28 93q3 11 7 27.5t10.5 40.5t10.5 42q6 22 31 114q-160 -119 -260 -119q-101 0 -174 81q-74 82 -74 188q0 107 81 286 q80 177 218 319q137 142 268 142q84 0 142 -64q94 -104 94 -297q0 -21 -2 -35q24 -35 24 -67q0 -83 -71 -187q-56 -127 -119 -359q-64 -238 -106 -335q-86 -209 -265 -209q-146 0 -244 79q-100 80 -100 157zM215 279q0 -36 23 -57q22 -21 57 -21q102 0 242 122 q139 121 196 283q-8 30 -14 82q-6 54 -12 88q-6 32 -27 67q-21 34 -53 34q-80 0 -181 -115q-96 -109 -165 -256q-66 -141 -66 -227z" />
<glyph unicode="h" horiz-adv-x="1097" d="M47 155q0 29 23 119q102 392 129 539q106 530 106 727q0 80 49 80q40 0 83 -61q44 -62 44 -119q0 -133 -66 -454q-65 -316 -173 -640q207 374 343 536q138 165 236 165q52 0 124 -93q71 -92 71 -184t-51 -276q-127 -463 -240 -463q-45 0 -45 61q0 63 49 207 q109 321 109 428q0 36 -19 61t-45 25q-25 0 -65 -29q-41 -30 -95 -100q-61 -81 -144 -207q-75 -114 -90 -138q-48 -77 -53 -85q-14 -22 -33 -52t-24 -39q-19 -32 -45 -65q-46 -67 -71 -67q-26 0 -66 46q-41 47 -41 78z" />
<glyph unicode="i" horiz-adv-x="487" d="M57 110q0 25 16 94q14 61 45 172q8 30 47 175q19 71 36 152q4 21 10.5 51t10.5 50.5t8 36.5q16 70 26 105q29 101 59 101q38 0 74 -48q35 -47 35 -92q0 -48 -59 -269q-58 -219 -150 -503q-35 -102 -88 -102q-29 0 -49 23q-21 24 -21 54zM326 1337q0 42 32 78q33 37 67 37 t81 -83t47 -138q0 -21 -18 -37q-17 -16 -39 -16q-51 0 -110 59q-60 60 -60 100z" />
<glyph unicode="j" horiz-adv-x="520" d="M-453 -268q0 24 22 62q21 36 40 36q23 0 47 -30t39 -48q88 -112 145 -112q58 0 97 61q36 57 75 194q35 124 70 271q18 75 85 369q56 244 101 411q30 101 60 101q32 0 71 -45q37 -43 37 -95q0 -47 -63 -285q-94 -355 -113 -429q-55 -213 -96 -373q-89 -322 -320 -322 q-101 0 -199 86t-98 148zM352 1337q0 41 33 78t68 37q34 0 81 -83q46 -82 46 -138q0 -20 -19 -37q-17 -16 -37 -16q-50 0 -110 59q-62 60 -62 100z" />
<glyph unicode="k" horiz-adv-x="960" d="M59 159q0 28 67 264q69 245 133 558q67 330 67 582q0 33 9 45t40 12t76 -60t45 -118q0 -181 -74 -510q-73 -324 -176 -623q234 334 400 534q170 204 209 204t77 -39q37 -38 37 -72q0 -19 -183 -193q-64 -63 -123 -154q-57 -89 -57 -163q0 -72 44 -136q43 -62 96 -94 q43 -26 97 -63q44 -30 44 -51q0 -51 -81 -51q-83 0 -193 91q-111 92 -138 204q-9 18 -16 39q-147 -199 -202 -262q-63 -72 -93 -72t-68 48q-37 47 -37 80z" />
<glyph unicode="l" horiz-adv-x="501" d="M59 145q0 25 60 254q56 215 119 565q59 329 59 603q0 28 8 41q7 12 35 12t77 -58q50 -59 50 -114q0 -380 -160 -999q-102 -418 -143 -418q-30 0 -67 45q-38 46 -38 69z" />
<glyph unicode="m" horiz-adv-x="1630" d="M45 146q0 22 8 59q1 5 18 67q15 55 28 98q24 80 45 151q26 87 39 240q4 51 11 125.5t9 97.5q6 71 35 71q45 0 89 -47t44 -95q0 -180 -135 -594q233 437 288 510q63 84 103 129q80 89 161 89q49 0 118 -85q69 -86 69 -171q0 -80 -25 -213q241 469 439 469q61 0 109 -85 q48 -86 48 -193q0 -105 -38 -280q-36 -167 -101 -315q-63 -143 -125 -143q-43 0 -43 56q0 55 71 277q70 219 70 350q0 130 -41 130q-51 0 -117 -90q-70 -96 -143 -217l-42 -70t-29.5 -49.5t-10.5 -17.5q-7 -11 -15 -25q-15 -27 -20 -35q-7 -10 -58 -111q-46 -91 -81 -144 q-34 -52 -60 -52t-56 33q-31 34 -31 61q0 30 37 119q106 264 106 495q0 43 -18 73t-41 30q-22 0 -47 -20q-25 -21 -62 -69q-26 -34 -65 -96q-15 -23 -87 -140q-70 -114 -88 -141q-1 -1 -27 -42t-42 -65q-39 -60 -60 -93q-10 -15 -49 -72q-54 -75 -80 -75q-27 0 -67 46 q-41 47 -41 69z" />
<glyph unicode="n" horiz-adv-x="1091" d="M47 158q0 13 14 55q42 126 86 294q48 180 52 398q6 150 43 150q45 0 90 -47q45 -46 45 -104q0 -59 -34 -217q-35 -165 -79 -300q194 330 321 497q124 163 202 163q79 0 150 -84q71 -85 71 -179q0 -145 -68 -360q-123 -393 -221 -393q-45 0 -45 61q0 41 44 175 q51 156 82 260q38 129 38 193t-20 95t-39 31t-40 -12q-19 -11 -46 -41q-7 -8 -48 -57q-14 -16 -56 -79q-35 -51 -57 -87q-44 -71 -65 -103q-43 -67 -66 -102q-8 -13 -29 -46.5t-30 -48.5q-30 -48 -58 -92q-21 -33 -48 -72q-50 -75 -81 -75q-30 0 -69 46q-39 47 -39 81z" />
<glyph unicode="o" horiz-adv-x="927" d="M74 372q0 150 70 308t187 263q116 104 237 104t204 -104q82 -103 82 -252t-72 -303q-72 -155 -197 -256t-268 -101q-105 0 -174 96t-69 245zM250 367q0 -158 78 -197q147 28 251 202q103 172 103 326q0 68 -23 132q-23 65 -65 92q-140 -39 -243 -219q-101 -177 -101 -336 z" />
<glyph unicode="p" horiz-adv-x="978" d="M-78 -373q0 35 66 299q196 794 196 1073q0 62 45 62q37 0 89 -54q53 -55 53 -120q0 -25 -9 -72q184 238 371 238q88 0 153 -113q64 -112 64 -232t-69 -240q-67 -117 -172 -214q-100 -93 -227 -157q-123 -62 -228 -62q-42 0 -78 10q-2 -10 -29 -125q-6 -25 -17.5 -76 t-16.5 -73q-13 -52 -33 -127q-38 -140 -66 -140t-60 44t-32 79zM213 195h20q110 0 235 73q126 73 215 196q89 122 89 243q0 170 -80 170q-78 0 -216 -138q-136 -136 -216 -356z" />
<glyph unicode="q" horiz-adv-x="970" d="M33 292q0 91 56 219q59 134 140 249q85 120 198 203q114 84 207 84t169 -76t76 -128t-35 -52q-26 0 -79 46t-95 46q-90 0 -206 -116q-117 -117 -194 -259t-77 -229q0 -34 22 -56t55 -22q113 0 256 127q144 128 195 325q8 31 41 31t77 -32t44 -61q0 -28 -35 -127 q-34 -98 -120 -321q-82 -214 -148 -403q149 100 231 100q22 0 39 -17q18 -18 18 -38q0 -33 -81 -81q-75 -44 -152 -99q-88 -62 -113 -79q-42 -28 -65 -28q-24 0 -51 44t-27 69t3 40q2 9 11 42q5 18 19 54q4 9 12.5 35t14.5 42q30 81 34 93q24 62 44 120q10 29 28.5 77.5 t23.5 63.5q-67 -66 -151 -107q-81 -40 -154 -40q-71 0 -151 86t-80 175z" />
<glyph unicode="r" horiz-adv-x="677" d="M68 144q0 40 34 151q84 258 84 502l-6 153q0 97 45 97q38 0 75 -51q36 -49 36 -118q0 -73 -4 -104q178 270 338 270q100 0 100 -49q0 -24 -22 -45q-20 -19 -72 -47q-108 -47 -183 -144q-76 -99 -122 -220q-57 -149 -75 -207q-9 -28 -23 -71.5t-19 -59.5q-16 -49 -33 -92 q-33 -82 -76 -82q-35 0 -56 40t-21 77z" />
<glyph unicode="s" horiz-adv-x="872" d="M12 238q0 26 14 42q13 15 33 15q21 0 58 -27q112 -80 230 -80q119 0 173 28q53 27 53 74q0 46 -59 98q-61 53 -130 93q-68 39 -130 101q-59 59 -59 120q0 108 171 227q170 118 283 118q69 0 131 -77t62 -134q0 -35 -33 -35q-23 0 -70 36q-45 35 -96 35q-50 0 -155 -57 t-105 -121q0 -49 188 -162q72 -45 130 -115q59 -71 59 -152q0 -80 -112 -157t-260 -77q-150 0 -262 71q-114 72 -114 136z" />
<glyph unicode="t" horiz-adv-x="792" d="M57 897q0 49 267 94q36 163 36 301q0 62 41 62q34 0 86 -44t52 -100q0 -52 -35 -194q111 10 186 10q123 0 123 -53q0 -30 -67 -51q-62 -20 -279 -64q-45 -169 -109 -370q-65 -205 -65 -252q0 -39 45 -39q77 0 189 44t124 44q37 0 37 -39q0 -59 -122 -137t-221 -78 t-165 54q-65 53 -65 112q0 57 24 146q22 81 71 236q45 141 73 242q-94 -22 -129 -22q-34 0 -65 34q-32 35 -32 64z" />
<glyph unicode="u" horiz-adv-x="985" d="M33 268q0 197 113 487q114 292 190 292q37 0 64 -34q28 -36 28 -77q0 -19 -55 -132q-57 -117 -111 -266q-55 -152 -55 -268q0 -34 20 -54q21 -21 49 -21q78 0 186 137q105 132 195 319q87 179 131 338q6 28 17 45q8 13 36 13q25 0 67 -54q40 -52 40 -102q0 -27 -90 -316 q-87 -278 -139 -458q-24 -86 -70 -86q-27 0 -45 22t-18 82q0 57 47 215q-84 -136 -187 -229q-100 -90 -183 -90t-157 78q-73 77 -73 159z" />
<glyph unicode="v" horiz-adv-x="864" d="M96 985q0 62 37 62q45 0 92 -38q48 -39 66 -96q5 -28 16 -163q28 -319 99 -498q53 113 141 337q84 213 140 338q54 120 83 120q34 0 68 -26q32 -25 32 -56q0 -57 -148 -383q-153 -338 -211 -442q-62 -113 -110 -113q-26 0 -65 39t-57 84q-57 132 -119 415 q-64 291 -64 420z" />
<glyph unicode="w" horiz-adv-x="1378" d="M96 975q0 84 51 84q45 0 83 -51q38 -52 44 -102q8 -64 12 -278q4 -226 38 -407q82 142 169 365q92 236 139 344q54 125 99 125q69 0 112 -63q44 -64 44 -163l-15 -385q0 -159 15 -231q86 89 152 216q68 130 97 230q27 90 55 200q27 103 44 149q21 55 47 55q40 0 70 -32 q30 -31 30 -73q0 -105 -94 -344q-79 -220 -209 -404q-129 -183 -200 -183q-72 0 -108 79q-35 78 -40 307q-1 65 -1 124q0 149 7 268q-139 -380 -250 -582q-108 -196 -172 -196q-30 0 -60 26q-33 28 -50 70q-46 109 -77 415q-32 311 -32 437z" />
<glyph unicode="x" horiz-adv-x="874" d="M-20 127q0 10 45 55q192 192 297 324q-94 168 -160 311q-66 144 -66 173q0 28 2 38q5 19 45 19q39 0 101 -25q59 -24 59 -59q0 -87 121 -320q167 224 247 313q82 91 120 91q39 0 76 -33q38 -33 38 -57t-14 -38q-18 -18 -46 -42q-38 -33 -60 -57q-26 -29 -70 -82 q-53 -64 -104 -129q-72 -92 -99 -124q19 -28 38 -61q32 -55 43 -72q18 -28 45 -72q27 -43 46 -72q20 -29 35 -56q33 -52 33 -74q0 -20 -15 -34q-14 -13 -35 -13q-92 0 -294 329q-268 -329 -326 -329q-34 0 -68 34t-34 62z" />
<glyph unicode="y" horiz-adv-x="960" d="M-39 -285q0 29 26 64t44 35q19 0 59 -45q119 -136 203 -136q64 0 115 112q49 107 97 252q50 151 51 155t3 9.5t4.5 13.5t4.5 13q3 8 7.5 21.5l6.5 19.5q-146 -198 -287 -198q-87 0 -159 80q-73 81 -73 188q0 103 54 293q52 181 125 319q73 136 116 136q38 0 69 -34 q32 -35 32 -69q0 -33 -53 -145q-166 -339 -166 -529q0 -34 20 -54q21 -21 49 -21q74 0 176 131q105 135 189 311q69 145 149 387q8 23 41 23t71 -49t38 -107q0 -42 -84 -279q-101 -286 -114 -322q-8 -24 -35 -99t-45 -126q-15 -42 -47.5 -134t-49.5 -140 q-102 -293 -307 -293q-116 0 -223 71t-107 146z" />
<glyph unicode="z" horiz-adv-x="901" d="M6 219q0 56 104 149q105 94 226 177q330 230 330 286q0 39 -209 39q-57 0 -127 -11t-110 -11q-35 0 -72 43t-37 74q0 39 90 60q94 22 246 22q156 0 258 -41q44 -18 82 -75q38 -58 38 -93q0 -78 -95 -179q-91 -97 -208 -178q-138 -96 -208 -149q-95 -72 -95 -96 q0 -35 53 -35q123 0 287 16t203 16q80 0 80 -47q0 -65 -205 -110t-395 -45q-88 0 -162 66t-74 122z" />
<glyph unicode="{" horiz-adv-x="862" d="M84 138q0 129 69 288q68 157 68 260q0 23 -31 74q-57 46 -57 102q0 18 7 32q8 15 22 15q16 0 75 -37q58 -36 106 -36t78 29q32 30 32 75q0 43 -49 193q-48 147 -48 288q0 140 112 243q110 101 249 101q137 0 216 -76t79 -184q0 -49 -32 -102t-65 -53q-28 0 -28 85 q0 84 -26 124q-25 38 -112 38q-89 0 -157 -65q-70 -67 -69 -189q2 -125 46 -258q45 -135 45 -182q0 -82 -65 -146q-67 -65 -174 -65h-10q10 -36 10 -89q0 -50 -56 -195q-55 -143 -55 -250q0 -106 59 -150q58 -43 152 -43t121 -12t27 -48q0 -37 -60 -68q-61 -32 -133 -32 q-145 0 -246 103q-100 101 -100 230z" />
<glyph unicode="|" horiz-adv-x="753" d="M137 -146q0 38 177 852q178 819 178 928q0 32 9 47t40 15q30 0 80 -61q49 -59 49 -126q0 -68 -166 -766q-10 -43 -78 -350q-146 -669 -175 -669q-30 0 -72 46t-42 84z" />
<glyph unicode="}" horiz-adv-x="1101" d="M158 -12q0 57 32 57q34 0 56 -22q70 -70 180 -70q69 0 103 82q33 80 38 189t27 236q22 128 72 195q-66 30 -107 86t-41 122q0 68 56 146q55 76 123 143t123 146q57 82 57 153q0 70 -54 118q-53 47 -115 47q-64 0 -104 -27q-39 -26 -64 -57q-33 -41 -47 -57 q-24 -27 -46 -27q-21 0 -56 38t-35 62q0 70 116 144q115 73 239 73q123 0 236 -98q114 -99 114 -197q0 -97 -59 -191q-61 -96 -130 -157q-186 -173 -186 -250q0 -91 115 -106q4 0 16.5 -1.5t20.5 -2.5q98 -10 98 -33q0 -55 -78 -88q-106 -60 -127 -350q-8 -117 -25 -223 q-18 -112 -81 -184t-178 -72q-114 0 -201 59q-88 60 -88 117z" />
<glyph unicode="~" horiz-adv-x="1216" d="M164 559q0 100 109 210q110 112 216 112q55 0 104 -35q50 -36 76 -78q28 -45 67 -81q41 -38 81 -44q42 6 76 39q35 33 53 68q46 94 101 94q53 0 53 -72q0 -99 -87 -198t-190 -99q-152 0 -315 262q-56 -24 -102 -68q-45 -43 -66 -81q-55 -94 -104 -94q-72 0 -72 65z" />
<glyph unicode="&#xa1;" horiz-adv-x="724" d="M170 -317q0 179 88 613q89 437 143 437q34 0 61 -33q26 -32 28 -57q1 -22 -26 -161q-27 -136 -57 -380q-30 -243 -30 -493q0 -53 -35 -53q-40 0 -105 49q-67 50 -67 78zM403 1169q0 15 21 33q22 19 41 19q49 0 113 -64q63 -63 63 -107q0 -45 -34 -86q-35 -42 -69 -42 q-36 0 -85 98q-50 100 -50 149z" />
<glyph unicode="&#xa2;" horiz-adv-x="987" d="M98 358q0 208 185 449q185 240 372 258q67 190 105 190q26 0 41 -24q14 -22 14 -53q0 -30 -37 -140q62 -33 105 -93q43 -59 43 -102q0 -42 -33 -42q-27 0 -83 40q-57 41 -75 48q-20 -71 -94 -348q-24 -90 -52.5 -196t-31.5 -118q87 10 167 42q81 32 101 32q39 0 39 -39 q0 -51 -116 -116q-117 -66 -238 -87q-63 -204 -90 -204q-19 0 -38 20q-20 22 -20 41q0 20 27 143q-110 21 -201 110q-90 89 -90 189zM281 363q0 -58 40 -97q41 -39 105 -45q77 344 168 647q-113 -67 -213 -227q-100 -161 -100 -278z" />
<glyph unicode="&#xa3;" horiz-adv-x="1345" d="M94 313q0 90 64 151q63 60 164 60q100 0 213 -90q44 121 75 230q-219 0 -219 53q0 36 27 77q27 40 51 40q75 0 188 -11q99 330 199 454t248 124q95 0 158 -76q63 -77 63 -174q0 -45 -49 -93q-50 -48 -80 -48q-31 0 -31 34l11 80q0 93 -84 93q-58 0 -110 -81 q-52 -80 -132 -319h16q198 0 251 -7q57 -8 57 -34q0 -79 -369 -106q-75 -236 -135 -369q122 -125 209 -125q55 0 109 28q53 27 83 62q82 88 119 88t59 -26q23 -28 23 -66q0 -72 -131 -159t-238 -87q-151 0 -311 148q-96 -133 -232 -133q-76 0 -171 96q-95 97 -95 186z M258 303q0 -35 39 -81t74 -46q43 0 100 111q-88 88 -135 88q-78 0 -78 -72z" />
<glyph unicode="&#xa4;" horiz-adv-x="1228" d="M174 218q0 19 16 36q17 18 65 65q53 51 79 80q-51 79 -51 187q0 147 98 264q-29 54 -53 92q-66 102 -66 123q0 43 31 43q54 0 111 -21q56 -21 68 -54t36 -79q78 39 160 39t145 -30q124 145 184 145q31 0 68 -34t37 -58q0 -25 -39 -64t-69 -66q-20 -18 -48 -46 q45 -74 45 -170q0 -181 -127 -308q101 -158 101 -180q0 -23 -15 -35t-35 -12q-61 0 -172 144q-64 -29 -143 -29q-80 0 -147 37q-137 -152 -175 -152t-71 33t-33 50zM436 595q0 -95 53 -154q52 -58 140 -58q85 0 151 87q66 88 65 178q-2 92 -52 154t-139 62q-86 0 -152 -87 t-66 -182z" />
<glyph unicode="&#xa5;" horiz-adv-x="1153" d="M59 406q0 49 379 79q11 73 15 113q-180 -18 -269 -18q-23 0 -47 34q-24 35 -24 68q0 50 309 72q-73 133 -152 316q-75 174 -75 243q0 65 38 65q48 0 92 -33q46 -34 70 -90l5 -16q6 -16 20.5 -56t29.5 -84q56 -159 121 -274l33 41l66 84q94 120 125 156q5 6 43.5 51.5 t64.5 75.5q124 145 174 145q31 0 63 -24q31 -24 31 -40q0 -15 -9 -33q-9 -17 -28 -44q-16 -22 -40 -53t-54 -65q-6 -7 -58 -68q-40 -47 -66 -75l-64 -72l-31.5 -35t-34.5 -38t-32 -35t-27 -30h23q100 0 183 -10q87 -10 87 -51q0 -61 -389 -91q-4 -37 -19 -114q123 6 209 6 q180 0 180 -45q0 -66 -423 -121v-4q-10 -42 -24 -109q-4 -19 -9.5 -49t-8.5 -41q-3 -13 -9 -36t-7 -27q-12 -54 -28 -54q-30 0 -76 41q-45 41 -45 84q0 47 32 174q-170 -16 -270 -16q-25 0 -49 38q-25 39 -25 65z" />
<glyph unicode="&#xa6;" horiz-adv-x="755" d="M139 -146q0 31 54 273q53 238 53 350q0 62 45 62q34 0 84 -61q49 -59 49 -127q0 -67 -69 -347t-103 -280q-29 0 -71 46t-42 84zM385 1012q0 39 54 273q55 238 55 349q0 32 9 47t39 15t80 -61t50 -128q0 -64 -70 -347q-69 -279 -104 -279q-29 0 -71 46q-42 47 -42 85z" />
<glyph unicode="&#xa7;" horiz-adv-x="950" d="M4 -4q0 37 24 82t44 45q19 0 33 -20q16 -23 26 -42q71 -120 168 -120q166 0 166 149q0 82 -125 195q-85 76 -107 96q-124 123 -124 240t97 220q98 104 224 165q-100 118 -100 213q0 120 131 228q129 107 258 107q78 0 137 -75t59 -177t-57 -102q-51 0 -81 94 q-30 95 -85 95q-66 0 -127 -53q-59 -52 -59 -101q0 -50 37 -99q44 -58 91 -105q58 -58 107 -114q53 -61 90 -139t37 -169q0 -89 -90 -182t-223 -130q94 -104 94 -221q0 -118 -93 -206q-94 -89 -251 -89q-114 0 -208 77q-93 76 -93 138zM289 623q0 -39 27 -82q26 -41 54 -68 q37 -35 83 -76q92 12 164 82q71 69 71 141t-40 131q-42 62 -116 142q-243 -123 -243 -270z" />
<glyph unicode="&#xa8;" horiz-adv-x="559" d="M20 1581q0 38 31 75q30 36 63 36q30 0 74 -80q43 -79 43 -111q0 -31 -18 -49t-37 -18q-44 0 -100 54t-56 93zM330 1581q0 40 29 75q30 36 63 36t75 -80t42 -111t-18 -49t-36 -18q-45 0 -100 54t-55 93z" />
<glyph unicode="&#xa9;" horiz-adv-x="1449" d="M162 633q0 279 226 499t505 220q239 0 383 -149q143 -147 143 -376q0 -302 -216 -503t-533 -201q-242 0 -375 143t-133 367zM301 584q0 -159 95 -256t251 -97q290 0 459 161q168 160 168 454q0 173 -97 283q-98 112 -239 112q-106 0 -218 -44q-110 -43 -206 -124 q-93 -78 -154 -205q-59 -122 -59 -284zM479 588q0 155 149 340q148 184 298 184q32 0 66 -37t34 -67q0 -31 -27 -31q-10 0 -30 7t-39 7q-83 0 -201 -139q-119 -140 -119 -268q0 -37 27 -61q26 -23 63 -23q90 0 184 42t101 42q29 0 29 -35q0 -43 -110 -108q-109 -64 -195 -64 q-87 0 -158 67q-72 68 -72 144z" />
<glyph unicode="&#xaa;" horiz-adv-x="970" d="M190 1039q0 67 31 158q29 87 82 175t132 147q81 60 167 60t158 -76q71 -75 71 -139q0 -28 -14 -64q2 -8 2 -22q0 -19 -19 -110q-20 -95 -20 -212q0 -118 -35 -118q-29 0 -54 45q-26 46 -32 108q-125 -153 -258 -153q-79 0 -145 66t-66 135zM332 1051q0 -82 77 -82 q76 0 166 105q91 107 136 267q-6 40 -35 70q-29 31 -70 31q-96 0 -185 -143t-89 -248z" />
<glyph unicode="&#xab;" horiz-adv-x="1345" d="M78 635q0 29 24 72q22 40 48 59q87 70 288 161t283 91q38 0 72 -23q32 -22 32 -45q0 -32 -71 -53q-178 -56 -343 -132q-163 -75 -163 -114q0 -35 127 -96t255 -120t128 -83q0 -43 -85 -43t-340 126t-255 200zM668 647q0 26 26 64q27 39 54 57q80 58 301 131 q219 72 309 72q38 0 73 -27q33 -26 33 -49q0 -35 -112 -59q-205 -43 -359 -98q-151 -54 -151 -92t253 -137t253 -134q0 -39 -66 -39q-119 0 -368 116q-246 115 -246 195z" />
<glyph unicode="&#xac;" horiz-adv-x="1015" d="M16 948q0 41 37 41l568 -8q329 0 405 -20q49 -15 79 -72t30 -131q0 -71 -70 -220q-69 -148 -161 -262q-91 -114 -148 -114q-39 0 -39 37q0 20 59 120q176 299 176 451q0 47 -121 47l-612 -6q-77 0 -140 48t-63 89z" />
<glyph unicode="&#xad;" horiz-adv-x="1228" d="M109 594q0 45 231 87t401 42q123 0 123 -51q0 -33 -66 -54q-56 -18 -322 -71q-255 -51 -278 -51q-24 0 -57 34q-32 33 -32 64z" />
<glyph unicode="&#xae;" horiz-adv-x="1206" d="M176 987q0 187 154 338q153 150 330 150t275 -101q97 -100 97 -256q0 -207 -146 -343t-364 -136q-166 0 -256 97q-90 98 -90 251zM274 961q0 -116 64 -182q63 -64 170 -64q194 0 308 108t114 307q0 116 -65 192q-65 75 -160 75q-158 0 -294 -121q-137 -122 -137 -315z M434 884q0 17 34 134q34 116 40 182q-27 18 -27 41q0 18 47 36q44 17 105 17q58 0 99 -25q42 -25 42 -75q0 -49 -43 -88q-44 -39 -85 -57q-42 -18 -42 -21q0 -25 80 -88q11 -11 35 -31q22 -18 26 -24q19 -17 19 -29q0 -20 -32 -20t-97 55q-67 56 -96 106l-2 -4 q-45 -157 -62 -157q-10 0 -25 16q-16 18 -16 32zM557 1073q110 55 131 88q10 14 10 31q0 29 -61 29q-21 0 -62 -13q5 -8 5 -29q0 -20 -23 -106z" />
<glyph unicode="&#xaf;" horiz-adv-x="747" d="M20 1284q0 57 359 57q195 0 271 -9q77 -9 77 -39t-61 -43q-57 -13 -295 -40q-225 -26 -240 -26q-38 0 -75 35q-36 35 -36 65z" />
<glyph unicode="&#xb0;" horiz-adv-x="694" d="M162 1085q0 146 110 272q111 128 260 128q97 0 158 -67q60 -66 60 -169q0 -143 -111 -271t-258 -128q-99 0 -159 66t-60 169zM326 1119q0 -65 25 -97q25 -33 67 -33q70 0 118 76q48 77 48 140q0 64 -25 100q-24 34 -65 34q-70 0 -119 -77t-49 -143z" />
<glyph unicode="&#xb1;" horiz-adv-x="1228" d="M162 237q0 33 41 33q175 0 471 21q281 20 340 20q135 0 135 -39q0 -38 -112 -70q-108 -31 -267 -46q-326 -33 -498 -33q-41 0 -75 40q-35 41 -35 74zM211 916q0 40 53 40h217q48 0 158 5q29 209 29 323q0 53 37 53t93 -52t56 -89q0 -39 -37 -221q264 22 295 22 q125 0 125 -51q0 -80 -455 -131q-68 -346 -94 -391q-12 -22 -24 -23q-31 0 -63 38t-32 70q0 35 43 290q-176 -11 -276 -11q-43 0 -85 45q-40 43 -40 83z" />
<glyph unicode="&#xb2;" horiz-adv-x="630" d="M127 824q0 29 59 79q77 65 129 105q67 51 129 130q60 76 60 147t-62 71q-55 0 -106 -62q-16 -22 -29 -22t-44 22q-32 23 -32 39q0 42 65 92t145 50q79 0 130 -54q50 -53 50 -135q0 -118 -98 -233q-99 -116 -244 -209q234 39 274 39q76 0 76 -38q0 -37 -154 -75 q-151 -37 -235 -37q-34 0 -74 32q-39 32 -39 59z" />
<glyph unicode="&#xb3;" horiz-adv-x="636" d="M113 782q0 21 96 45q85 21 192 63q97 38 97 89q0 28 -58 43q-50 13 -116 28q-61 14 -62 40v2q0 40 131 106q49 23 92 63q41 38 41 74q0 33 -41 33q-39 0 -100 -35t-76 -35q-16 0 -42 26q-25 25 -25 42q0 37 84 73t153 36q68 0 116 -48q46 -46 46 -101q0 -54 -55 -109 q-56 -56 -133 -99q178 -39 178 -139q0 -94 -134 -166q-133 -72 -259 -72q-125 0 -125 41z" />
<glyph unicode="&#xb4;" horiz-adv-x="448" d="M20 1410q0 26 25 60q20 28 76 82q51 50 81 78q20 19 46 45q11 11 35 33q35 29 62 29q28 0 55 -39q28 -40 28 -67q0 -26 -5 -41q-4 -11 -13 -22q-8 -10 -28 -25q-16 -12 -36 -25q-35 -22 -51 -32q-24 -14 -58 -38q-30 -20 -51 -37q-30 -24 -39 -29q-52 -34 -74 -34 q-23 0 -37 17q-16 19 -16 45z" />
<glyph unicode="&#xb5;" horiz-adv-x="1177" d="M-82 -347q0 19 33 95q147 350 212 532q67 186 126 379q66 215 95 292q37 96 62 96q27 0 66 -24t39 -42q0 -42 -43 -162q-123 -360 -123 -549q0 -34 19 -54q20 -21 49 -21q82 0 196 151q117 155 202 336q87 185 114 307q12 58 43 58q33 0 75 -54q41 -53 41 -102 q0 -25 -102 -356q-110 -358 -127 -418q-24 -86 -74 -86q-61 0 -61 92q0 61 45 225q-196 -317 -367 -317q-56 0 -96 35q-38 34 -49 88q-7 -14 -82 -189q-67 -157 -105 -231q-69 -144 -96 -144q-30 0 -61 22t-31 41z" />
<glyph unicode="&#xb6;" horiz-adv-x="1067" d="M143 954q0 156 106 342q105 184 255 250q70 29 194 47q135 19 198 19q72 0 100 -11q31 -12 65 -64q35 -53 35 -103q-1 -310 -185 -996q-112 -407 -153 -407q-26 0 -58 28t-32 55t58 234q58 205 129 535q71 325 93 606q-68 -21 -192 -39q2 -10 2 -23q-1 -311 -185 -989 q-108 -407 -153 -407q-28 0 -59 28t-31 54q0 25 30 139q124 462 150 577q-94 -75 -172 -75q-76 0 -135 65q-60 66 -60 135z" />
<glyph unicode="&#xb7;" horiz-adv-x="485" d="M115 680q0 44 36 88q36 43 73 43q39 0 88 -100q50 -102 50 -152q0 -17 -22 -36t-43 -19q-52 0 -117 65t-65 111z" />
<glyph unicode="&#xb8;" horiz-adv-x="516" d="M20 -383q0 26 55 38q54 12 132 30q77 18 115 57q-15 18 -98 36t-83 38q0 18 17 60q14 34 42 92q28 57 38 89q12 37 68 37t56 -47q0 -50 -65 -162h6q62 0 127 -37q66 -38 66 -79q-2 -90 -127 -146q-123 -55 -258 -55q-41 0 -65 14q-26 15 -26 35z" />
<glyph unicode="&#xb9;" horiz-adv-x="315" d="M160 790q0 15 39 246t39 408q0 39 24 39q25 0 65 -34t40 -54q0 -75 -46 -335q-47 -264 -64 -300q-18 -37 -35 -37t-40 26q-22 25 -22 41z" />
<glyph unicode="&#xba;" horiz-adv-x="925" d="M221 1135q0 167 110 306q109 138 267 138q104 0 166 -95q61 -94 61 -210q0 -154 -111 -293t-282 -139q-90 0 -150 90q-61 91 -61 203zM360 1126q0 -111 78 -168q111 18 180 107q70 90 70 217q0 129 -92 174q-110 -27 -173 -123t-63 -207z" />
<glyph unicode="&#xbb;" horiz-adv-x="1705" d="M174 358q0 32 140 95l282 126q141 63 141 93q0 38 -128 91q-125 51 -269 79q-80 15 -80 47q0 21 35 51q36 31 61 31q113 0 334 -106q219 -105 219 -199q0 -81 -278 -211q-280 -131 -400 -131q-57 0 -57 34zM754 339q0 33 277 160q278 128 278 163q0 42 -125 117 q-122 73 -256 112q-78 24 -78 53q0 20 30 47t56 27q101 -1 319 -132t218 -222q0 -60 -43 -99q-88 -71 -309 -165q-217 -93 -293 -93q-74 0 -74 32z" />
<glyph unicode="&#xbc;" horiz-adv-x="1603" d="M141 56q0 26 63 129q78 128 234 352q455 650 690 979q29 33 51 35q19 1 48 -45q28 -46 28 -89q0 -44 -74 -151q-76 -110 -232 -312q-170 -221 -242 -323q-264 -385 -373 -531q-96 -129 -127 -129q-17 0 -41 30q-25 31 -25 55zM244 687q0 22 49 309t49 524q0 41 32 41 q33 0 79 -40q47 -41 47 -65q0 -127 -51 -397q-2 -10 -10 -53.5t-14 -77.5q-6 -35 -14.5 -80t-9.5 -50q-8 -44 -21 -95q-14 -53 -25 -73q-13 -22 -30 -22q-21 0 -51 30t-30 49zM817 420q0 82 78 218q79 138 165 239q87 102 115 102q27 0 54 -27q26 -26 26 -49q0 -25 -71 -115 q-221 -280 -221 -358q0 -33 13 -47t49 -14q37 0 80 12q45 12 95 33q34 14 70 26q12 85 12 183q0 45 41 45q25 0 66 -39t41 -70q0 -131 -79 -390q-79 -261 -134 -261q-23 0 -39 24q-17 25 -17 51q0 28 11 65q1 4 12.5 43t19.5 66q14 45 35 126q-111 -45 -211 -45t-156 50 q-55 49 -55 132z" />
<glyph unicode="&#xbd;" horiz-adv-x="1611" d="M113 55q0 26 45 102q49 83 143 220q125 181 203 291q415 587 588 835q28 43 37 46t16 3q22 0 52 -45t30 -89t-75 -153q-84 -122 -231 -312q-176 -227 -243 -322q-287 -416 -375 -532q-96 -128 -125 -128q-17 0 -41 30t-24 54zM215 695q0 23 25 151q73 366 73 674 q0 41 32 41q33 0 79 -40q47 -41 47 -65q-1 -147 -53 -397q-2 -10 -7.5 -41.5t-9.5 -53.5t-9 -54.5t-7 -41.5q-8 -44 -15 -82q-8 -39 -17 -73q-12 -42 -16 -55q-7 -20 -18 -38q-7 -12 -25 -12t-48 30q-31 31 -31 57zM762 86q0 24 49 67t120 99q75 59 141 118q71 64 120 139 q49 76 49 148q0 101 -78 101q-53 0 -108 -52q-56 -53 -64 -53q-19 0 -58 25q-38 24 -38 45q0 55 84 118q83 62 183 62q101 0 163 -68q64 -70 64 -167q0 -158 -134 -310t-329 -268q335 53 379 53q94 0 94 -41q0 -46 -197 -93q-194 -46 -301 -46q-43 0 -91 39t-48 84z" />
<glyph unicode="&#xbe;" horiz-adv-x="1794" d="M176 741q0 25 248 82q91 22 170 68q78 45 78 102q0 39 -76 57q-25 6 -153 31q-76 15 -76 47v7q0 41 170 131q61 34 114 84q54 51 54 96q0 47 -54 47q-52 0 -131 -44t-97 -44q-20 0 -50 30q-31 31 -31 50q0 44 107 91q105 46 192 46q86 0 145 -59q60 -60 60 -126t-74 -142 q-72 -74 -174 -130q107 -18 171 -64q65 -47 65 -112q0 -117 -171 -208q-170 -91 -329 -91q-158 0 -158 51zM369 55q0 26 45 102q49 83 143 220q125 181 203 291q343 484 491 697q28 41 55 79.5t39 55.5t14 20q8 12 9 13q1 2 7 8t9 7q4 4 22 4q17 0 47 -45t30 -89 q0 -43 -74 -152q-80 -118 -232 -314q-174 -225 -243 -321q-287 -416 -375 -532q-96 -128 -125 -128q-17 0 -41 30t-24 54zM1042 421q0 81 78 217q80 140 166 239q88 102 116 102q27 0 54 -27t27 -49q0 -23 -74 -115q-219 -275 -219 -358q0 -33 13 -47t48 -14q38 0 78 11 q44 12 98 34q47 19 70 26q12 85 12 183q0 45 41 45q25 0 64 -39t39 -70q0 -125 -80 -389q-79 -262 -133 -262q-23 0 -38 24q-16 26 -16 51q0 22 13 66q18 62 33 109q7 23 34 125q-114 -45 -212 -45q-97 0 -154 51q-58 52 -58 132z" />
<glyph unicode="&#xbf;" horiz-adv-x="778" d="M2 -88q0 85 55 176q58 96 127 162q197 191 252 316q56 127 72 143t31 16q53 0 53 -131t-146 -283q-84 -90 -121 -129q-63 -66 -103 -132q-42 -69 -42 -130q0 -60 44 -101q43 -40 108 -40q63 0 111 39q49 40 49 98l-5 53q0 23 25 36q22 11 45 11q20 0 59 -47t39 -80 q0 -112 -100 -200t-234 -88q-135 0 -227 84t-92 227zM504 1169q0 16 20 33q22 19 41 19q49 0 113 -64q63 -63 63 -107q0 -46 -33 -86q-34 -42 -70 -42t-85 98t-49 149z" />
<glyph unicode="&#xc0;" d="M86 158q0 13 119 293q-8 -2 -31 -2q-26 0 -56 26q-32 27 -32 67q0 39 203 105q24 53 66 165q37 98 121 298q98 233 107 256q20 50 75 89q56 40 110 40q64 0 114 -203q52 -213 81 -501q57 6 98 6q94 0 94 -54q0 -39 -180 -90q16 -207 16 -362q0 -258 -67 -258 q-38 0 -57 43q-18 41 -29 149q-6 68 -11 131.5t-9 106.5t-7 75.5t-4.5 51t-1.5 20.5q-317 -83 -395 -106q-180 -471 -214 -471q-35 0 -72 40q-38 41 -38 85zM483 700q164 43 308 66q-38 351 -72 524q-107 -247 -236 -590zM504 1886q0 24 31 63q30 38 67 38q31 0 78 -56 q38 -44 119 -128q82 -85 91 -104t9 -39t-16 -37t-36 -17t-40 13q-12 8 -61 44q-57 42 -63 46q-24 15 -48 33q-8 6 -38 26q-12 8 -32 23q-16 12 -27 23q-15 16 -18 19q-8 12 -12 19q-4 8 -4 34z" />
<glyph unicode="&#xc1;" d="M86 158q0 13 119 293q-8 -2 -31 -2q-26 0 -56 26q-32 27 -32 67q0 39 203 105q24 53 66 165q37 98 121 298q98 233 107 256q20 50 75 89q56 40 110 40q64 0 114 -203q52 -213 81 -501q57 6 98 6q94 0 94 -54q0 -39 -180 -90q16 -207 16 -362q0 -258 -67 -258 q-38 0 -57 43q-18 41 -29 149q-6 68 -11 131.5t-9 106.5t-7 75.5t-4.5 51t-1.5 20.5q-317 -83 -395 -106q-180 -471 -214 -471q-35 0 -72 40q-38 41 -38 85zM483 700q164 43 308 66q-38 351 -72 524q-107 -247 -236 -590zM725 1666q0 27 26 59q33 40 101 110q58 52 88 84 q28 29 47 43q39 31 64 31q26 0 53 -38q26 -36 26 -68q0 -27 -5 -44q-4 -14 -24 -31q-15 -12 -36 -26q-137 -93 -185 -127q-42 -30 -56 -38q-15 -9 -25 -12q-11 -3 -27 -3q-17 0 -32 16t-15 44z" />
<glyph unicode="&#xc2;" d="M86 158q0 13 119 293q-8 -2 -31 -2q-26 0 -56 26q-32 27 -32 67q0 39 203 105q24 53 66 165q37 98 121 298q98 233 107 256q20 50 75 89q56 40 110 40q64 0 114 -203q52 -213 81 -501q57 6 98 6q94 0 94 -54q0 -39 -180 -90q16 -207 16 -362q0 -258 -67 -258 q-38 0 -57 43q-18 41 -29 149q-6 68 -11 131.5t-9 106.5t-7 75.5t-4.5 51t-1.5 20.5q-317 -83 -395 -106q-180 -471 -214 -471q-35 0 -72 40q-38 41 -38 85zM446 1700q0 37 33 73q31 34 83 64q63 36 83 49q42 27 53 33q4 2 19 11t24 14q49 24 69 24t37 -10q14 -8 27 -23 q4 -5 20.5 -25t28.5 -35q32 -41 61 -73q30 -33 42 -48q4 -4 14.5 -17t16.5 -21q33 -44 33 -67q0 -50 -52 -50q-34 0 -80 39q-45 38 -73 72q-45 55 -80 100q-61 -30 -120 -77q-67 -53 -103 -78q-41 -29 -69 -29q-26 0 -47 19q-20 18 -20 55zM483 700q164 43 308 66 q-38 351 -72 524q-107 -247 -236 -590z" />
<glyph unicode="&#xc3;" d="M86 158q0 13 119 293q-8 -2 -31 -2q-26 0 -56 26q-32 27 -32 67q0 39 203 105q24 53 66 165q37 98 121 298q98 233 107 256q20 50 75 89q56 40 110 40q64 0 114 -203q52 -213 81 -501q57 6 98 6q94 0 94 -54q0 -39 -180 -90q16 -207 16 -362q0 -258 -67 -258 q-38 0 -57 43q-18 41 -29 149q-6 68 -11 131.5t-9 106.5t-7 75.5t-4.5 51t-1.5 20.5q-317 -83 -395 -106q-180 -471 -214 -471q-35 0 -72 40q-38 41 -38 85zM455 1680q0 69 80 152t161 83q46 0 85 -25t57 -55q51 -82 88 -88q36 6 79 75q43 68 82 68q52 0 52 -70t-65 -147 q-64 -76 -142 -76q-113 0 -227 183q-47 -24 -97 -97q-49 -71 -88 -71q-65 0 -65 68zM483 700q164 43 308 66q-38 351 -72 524q-107 -247 -236 -590z" />
<glyph unicode="&#xc4;" d="M86 158q0 13 119 293q-8 -2 -31 -2q-26 0 -56 26q-32 27 -32 67q0 39 203 105q24 53 66 165q37 98 121 298q98 233 107 256q20 50 75 89q56 40 110 40q64 0 114 -203q52 -213 81 -501q57 6 98 6q94 0 94 -54q0 -39 -180 -90q16 -207 16 -362q0 -258 -67 -258 q-38 0 -57 43q-18 41 -29 149q-6 68 -11 131.5t-9 106.5t-7 75.5t-4.5 51t-1.5 20.5q-317 -83 -395 -106q-180 -471 -214 -471q-35 0 -72 40q-38 41 -38 85zM483 700q164 43 308 66q-38 351 -72 524q-107 -247 -236 -590zM526 1784q0 39 30 75q29 35 62 35t75 -79t42 -111 t-17 -49q-19 -19 -36 -19q-43 0 -100 55q-56 54 -56 93zM834 1784q0 39 30 75q29 35 63 35q31 0 74 -79t43 -112q0 -31 -18 -49t-37 -18q-43 0 -100 55q-55 54 -55 93z" />
<glyph unicode="&#xc5;" d="M86 158q0 13 119 293q-8 -2 -31 -2q-26 0 -56 26q-32 27 -32 67q0 39 203 105q24 53 66 165q37 98 121 298q98 233 107 256q20 50 75 89q56 40 110 40q64 0 114 -203q52 -213 81 -501q57 6 98 6q94 0 94 -54q0 -39 -180 -90q16 -207 16 -362q0 -258 -67 -258 q-38 0 -57 43q-18 41 -29 149q-6 68 -11 131.5t-9 106.5t-7 75.5t-4.5 51t-1.5 20.5q-317 -83 -395 -106q-180 -471 -214 -471q-35 0 -72 40q-38 41 -38 85zM483 700q164 43 308 66q-38 351 -72 524q-107 -247 -236 -590zM633 1763q0 80 60 149q59 68 136 68q76 0 122 -52 t46 -131q0 -78 -60 -147t-135 -69q-76 0 -122 51q-47 52 -47 131zM754 1769q0 -37 15 -58t40 -21t46 28q22 30 22 67t-16 59t-40 22q-25 0 -46 -30t-21 -67z" />
<glyph unicode="&#xc6;" horiz-adv-x="1701" d="M37 127q0 31 36 118q29 71 102 241q73 171 185 453q118 299 168 384q43 72 178 96q139 25 389 25q262 0 389 -10q134 -10 177 -27q43 -16 43 -43q0 -72 -463 -72h-106q6 -18 6 -39q0 -157 -84 -442q219 23 305 23q162 0 162 -64q0 -34 -98 -54t-229 -36q-37 -5 -72.5 -9 t-50.5 -6t-17 -2q-6 -1 -22 -3q-9 -1 -23 -3q-105 -349 -105 -387q0 -67 58 -67q237 0 520 76q91 24 106 24q29 0 29 -43q0 -73 -226 -151t-438 -78q-94 0 -164 55q-71 56 -71 129q0 113 94 416q-89 -12 -238 -36q-151 -25 -182 -26q-167 -409 -206 -478q-36 -64 -56 -64 q-33 0 -64 34q-32 35 -32 66zM461 725q157 33 401 63q95 320 101 500q-236 -12 -263 -45q-41 -43 -239 -518z" />
<glyph unicode="&#xc7;" horiz-adv-x="1234" d="M135 440q0 193 126 436q126 242 324 418q199 176 380 176q50 0 107 -67q56 -66 56 -112q0 -44 -14 -44q-11 0 -57 16q-43 15 -80 15q-107 0 -261 -133q-155 -134 -273 -337q-117 -201 -117 -376q0 -94 57 -146q58 -53 153 -53q91 0 195 28q95 26 162 63q166 88 182 88 q35 0 35 -45t-91 -121q-90 -75 -227 -137t-247 -66q-23 -57 -53 -111h6q65 0 128 -35q64 -36 64 -81q-2 -90 -127 -146q-123 -55 -258 -55q-39 0 -64 15q-26 15 -26 38q0 22 54 34q72 16 132 31q78 19 115 58q-12 18 -96 36t-84 40t36 97q33 70 46 102q-116 46 -199 151 q-84 107 -84 223z" />
<glyph unicode="&#xc8;" horiz-adv-x="1198" d="M129 225q0 85 60 287q65 220 122 432q62 231 62 387q0 21 8 47q34 76 446 76t412 -59q0 -41 -88 -56q-54 -11 -196 -25q-32 -3 -70.5 -7t-62.5 -6.5t-38 -3.5q-52 -5 -237 -37v-7q0 -140 -76 -419q24 -3 83 -3q65 0 189 11q113 10 180 10q60 0 60 -29q0 -71 -168 -106 q-170 -35 -389 -35q-111 -350 -111 -424q0 -24 16 -40q15 -15 40 -15q237 0 520 76q91 24 106 24q31 0 31 -43q0 -73 -226 -151t-437 -78q-95 0 -165 55q-71 56 -71 139zM582 1886q0 26 30 63q30 38 58 38q25 0 44 -14q18 -13 59 -59q34 -38 114 -121q72 -75 81 -94t9 -39 t-16 -37t-36 -17t-41 12q-24 14 -63 44q-38 30 -61 46q-8 6 -24.5 18t-22.5 16q-27 20 -39 27q-11 7 -32 23q-22 17 -27 22q-10 10 -17 18q-10 12 -13 20q-3 9 -3 34z" />
<glyph unicode="&#xc9;" horiz-adv-x="1198" d="M129 225q0 85 60 287q65 220 122 432q62 231 62 387q0 21 8 47q34 76 446 76t412 -59q0 -41 -88 -56q-54 -11 -196 -25q-32 -3 -70.5 -7t-62.5 -6.5t-38 -3.5q-52 -5 -237 -37v-7q0 -140 -76 -419q24 -3 83 -3q65 0 189 11q113 10 180 10q60 0 60 -29q0 -71 -168 -106 q-170 -35 -389 -35q-111 -350 -111 -424q0 -24 16 -40q15 -15 40 -15q237 0 520 76q91 24 106 24q31 0 31 -43q0 -73 -226 -151t-437 -78q-95 0 -165 55q-71 56 -71 139zM801 1666q0 28 25 60q20 26 76 82q40 40 80 78q20 19 46 45q11 11 35 31q36 31 63 31q29 0 56 -38 q26 -36 26 -68q0 -27 -5 -44q-4 -14 -24 -31q-15 -12 -36 -26q-85 -57 -108 -72q-27 -17 -66 -46q-36 -26 -40 -29q-3 -2 -12.5 -7.5t-15.5 -9.5q-15 -10 -27 -13q-10 -3 -25 -3q-16 0 -32 16t-16 44z" />
<glyph unicode="&#xca;" horiz-adv-x="1198" d="M129 225q0 85 60 287q65 220 122 432q62 231 62 387q0 21 8 47q34 76 446 76t412 -59q0 -41 -88 -56q-54 -11 -196 -25q-32 -3 -70.5 -7t-62.5 -6.5t-38 -3.5q-52 -5 -237 -37v-7q0 -140 -76 -419q24 -3 83 -3q65 0 189 11q113 10 180 10q60 0 60 -29q0 -71 -168 -106 q-170 -35 -389 -35q-111 -350 -111 -424q0 -24 16 -40q15 -15 40 -15q237 0 520 76q91 24 106 24q31 0 31 -43q0 -73 -226 -151t-437 -78q-95 0 -165 55q-71 56 -71 139zM522 1700q0 37 33 73q31 34 83 64q63 36 83 49q42 27 53 33q35 20 45 25q45 24 66 24t38 -10 q14 -8 27 -23q5 -5 34 -42q9 -11 21 -25.5t15 -18.5q5 -7 42 -47q30 -33 42 -48q4 -4 14.5 -17t16.5 -21q32 -42 32 -67t-15 -37q-16 -13 -42 -13q-28 0 -74 39q-45 38 -73 72q-45 55 -80 100q-61 -30 -120 -77q-59 -46 -104 -78q-41 -29 -69 -29q-27 0 -48 19 q-20 18 -20 55z" />
<glyph unicode="&#xcb;" horiz-adv-x="1198" d="M129 225q0 85 60 287q65 220 122 432q62 231 62 387q0 21 8 47q34 76 446 76t412 -59q0 -41 -88 -56q-54 -11 -196 -25q-32 -3 -70.5 -7t-62.5 -6.5t-38 -3.5q-52 -5 -237 -37v-7q0 -140 -76 -419q24 -3 83 -3q65 0 189 11q113 10 180 10q60 0 60 -29q0 -71 -168 -106 q-170 -35 -389 -35q-111 -350 -111 -424q0 -24 16 -40q15 -15 40 -15q237 0 520 76q91 24 106 24q31 0 31 -43q0 -73 -226 -151t-437 -78q-95 0 -165 55q-71 56 -71 139zM602 1784q0 38 31 75q29 35 62 35q32 0 75 -79t43 -112q0 -32 -17 -49q-18 -18 -38 -18q-44 0 -101 55 q-55 54 -55 93zM911 1784q0 38 31 75q29 35 63 35q31 0 74 -79t43 -111q0 -31 -18 -49q-19 -19 -37 -19q-43 0 -100 55q-56 54 -56 93z" />
<glyph unicode="&#xcc;" horiz-adv-x="634" d="M139 178q0 40 122 573q123 536 124 658q0 35 9 48t39 13t78 -63t48 -136t-147 -673q-15 -56 -39 -159q-22 -96 -39 -158q-10 -37 -31 -121q-34 -121 -59 -121t-65 49t-40 90zM279 1886q0 26 30 63q30 38 66 38q31 0 78 -56q38 -44 119 -128q86 -89 93 -104q9 -19 9 -39 q0 -19 -18 -37q-17 -17 -35 -17q-19 0 -40 12q-24 14 -63 44q-43 33 -62 47q-8 6 -24 17t-23 16q-8 5 -15 10t-14 9.5t-10 6.5t-31 23q-16 12 -27 23q-12 12 -18 19q-9 11 -12 19q-3 9 -3 34z" />
<glyph unicode="&#xcd;" horiz-adv-x="634" d="M139 178q0 40 122 573q123 536 124 658q0 35 9 48t39 13t78 -63t48 -136t-147 -673q-15 -56 -39 -159q-22 -96 -39 -158q-10 -37 -31 -121q-34 -121 -59 -121t-65 49t-40 90zM498 1666q0 28 25 59q28 34 102 110q44 40 83 79q28 28 52 48q36 31 62 31q29 0 56 -39t27 -67 q0 -26 -5 -41q-4 -11 -13 -22q-8 -10 -28 -25q-16 -12 -36 -25q-35 -22 -51 -32q-24 -14 -58 -38q-21 -14 -50 -37q-30 -24 -39 -29q-20 -12 -27 -16q-26 -16 -47 -16t-37 16t-16 44z" />
<glyph unicode="&#xce;" horiz-adv-x="634" d="M139 178q0 40 122 573q123 536 124 658q0 35 9 48t39 13t78 -63t48 -136t-147 -673q-15 -56 -39 -159q-22 -96 -39 -158q-10 -37 -31 -121q-34 -121 -59 -121t-65 49t-40 90zM219 1700q0 37 33 73q31 34 83 64q63 36 83 49q42 27 53 33q42 24 44 25q26 13 41 18 q18 6 32 6q15 0 32 -10q14 -8 27 -23l49 -61q39 -47 62 -72q28 -30 42 -48q15 -20 31 -40q33 -40 33 -65q0 -50 -53 -50q-33 0 -80 39q-48 40 -74 72q-25 30 -79 100q-57 -30 -120 -78q-78 -59 -103 -77q-41 -29 -68 -29t-48 19q-20 18 -20 55z" />
<glyph unicode="&#xcf;" horiz-adv-x="634" d="M139 178q0 40 122 573q123 536 124 658q0 35 9 48t39 13t78 -63t48 -136t-147 -673q-15 -56 -39 -159q-22 -96 -39 -158q-10 -37 -31 -121q-34 -121 -59 -121t-65 49t-40 90zM299 1784q0 38 31 75q29 35 62 35q32 0 75 -79t43 -111q0 -31 -18 -49q-19 -19 -37 -19 q-44 0 -101 55q-55 54 -55 93zM608 1784q0 39 30 75q29 35 62 35t75 -79t42 -111t-17 -49q-19 -19 -36 -19q-43 0 -100 55q-56 54 -56 93z" />
<glyph unicode="&#xd0;" horiz-adv-x="1267" d="M29 631q0 47 90 65q96 19 205 35q105 377 116 516q-64 28 -104 72q-39 44 -39 82q0 39 41 39q194 0 411 -102q220 -103 375 -279q158 -179 158 -367q0 -122 -173 -292q-170 -167 -400 -288q-228 -120 -377 -120q-40 0 -89 66q-50 67 -50 129q0 66 83 376q-109 -8 -125 -8 q-26 0 -73 20q-49 21 -49 56zM371 176q138 18 316 124q175 105 291 225q116 121 116 190q0 127 -152 274q-153 148 -352 215q10 -33 10 -67q0 -85 -86 -385q36 2 73 2q43 0 89 -22q43 -21 43 -56q0 -34 -67 -52q-66 -18 -183 -36l-35 -115q-39 -135 -63 -297z" />
<glyph unicode="&#xd1;" horiz-adv-x="1386" d="M109 176q0 51 133 577q132 523 137 658q0 66 35 66q21 0 62 -38t59 -83q339 -879 417 -1049q133 351 178 842q21 225 21 244q4 88 42 88t83 -47q45 -46 45 -84q0 -172 -52 -478t-140 -573q-87 -264 -164 -264q-28 0 -61 26q-34 26 -52 66q-69 161 -363 909 q-48 -184 -136 -537q-74 -296 -99 -382q-24 -82 -43 -82q-28 0 -65 46t-37 95zM549 1673q0 76 80 159t162 83q48 0 87 -25q37 -24 56 -55q51 -82 88 -88q36 6 79 75q43 68 83 68q51 0 51 -70t-66 -147q-66 -76 -141 -76q-112 0 -229 183q-40 -22 -71 -64t-56 -74 q-24 -30 -56 -30t-49 16q-18 16 -18 45z" />
<glyph unicode="&#xd2;" horiz-adv-x="1255" d="M111 438q0 190 68 379q70 193 172 336q102 141 229 235q124 91 231 91q172 0 287 -157q114 -156 114 -353t-108 -413q-108 -215 -290 -369q-180 -152 -365 -152q-135 0 -237 133q-101 132 -101 270zM297 451q0 -114 49 -184t115 -70q104 0 236 120q137 125 231 298 q96 177 96 335q0 157 -60 256t-143 99q-82 0 -205 -127q-121 -125 -221 -333q-98 -203 -98 -394zM713 1886q0 26 30 63q30 38 66 38q31 0 78 -56q29 -34 120 -128q84 -87 92 -104q9 -19 9 -39t-16 -37t-36 -17t-41 12q-24 14 -63 44q-38 30 -61 46q-8 6 -24.5 18t-22.5 16 q-27 20 -39 27q-11 7 -32 23q-22 17 -27 22q-10 10 -17 18q-10 12 -13 20q-3 9 -3 34z" />
<glyph unicode="&#xd3;" horiz-adv-x="1255" d="M111 438q0 190 68 379q70 193 172 336q102 141 229 235q124 91 231 91q172 0 287 -157q114 -156 114 -353t-108 -413q-108 -215 -290 -369q-180 -152 -365 -152q-135 0 -237 133q-101 132 -101 270zM297 451q0 -114 49 -184t115 -70q104 0 236 120q137 125 231 298 q96 177 96 335q0 157 -60 256t-143 99q-82 0 -205 -127q-121 -125 -221 -333q-98 -203 -98 -394zM932 1666q0 28 25 60q20 26 76 82q40 40 80 78q20 19 46 45q11 11 35 31q36 31 63 31q29 0 56 -38q26 -36 26 -68q0 -27 -5 -44q-4 -14 -24 -31q-15 -12 -36 -26 q-84 -57 -110 -73q-29 -18 -66 -45q-9 -6 -39 -29q-14 -10 -27 -17q-26 -16 -47 -16t-37 16t-16 44z" />
<glyph unicode="&#xd4;" horiz-adv-x="1255" d="M111 438q0 190 68 379q70 193 172 336q102 141 229 235q124 91 231 91q172 0 287 -157q114 -156 114 -353t-108 -413q-108 -215 -290 -369q-180 -152 -366 -152q-134 0 -236 133q-101 132 -101 270zM297 451q0 -114 49 -184t115 -70q104 0 236 120q137 125 231 298 q96 177 96 335q0 157 -60 256t-143 99q-82 0 -205 -127q-121 -125 -221 -333q-98 -203 -98 -394zM653 1700q0 37 33 73q31 34 83 64q63 36 83 49q42 27 53 33q42 24 44 25q26 13 41 18q18 6 32 6q15 0 32 -10q14 -8 27 -23q5 -5 34 -42q9 -11 21 -25.5t15 -18.5q5 -7 42 -47 q30 -33 42 -48q3 -4 13.5 -17t17.5 -21q32 -42 32 -67q0 -50 -53 -50q-33 0 -79 39q-42 35 -72 72q-45 55 -80 100q-60 -30 -120 -77q-67 -53 -103 -78q-41 -29 -70 -29q-27 0 -48 19q-20 18 -20 55z" />
<glyph unicode="&#xd5;" horiz-adv-x="1255" d="M111 438q0 190 68 379q70 193 172 336q102 141 229 235q124 91 231 91q172 0 287 -157q114 -156 114 -353t-108 -413q-108 -215 -290 -369q-180 -152 -365 -152q-135 0 -237 133q-101 132 -101 270zM297 451q0 -114 49 -184t115 -70q104 0 236 120q137 125 231 298 q96 177 96 335q0 157 -60 256t-143 99q-82 0 -205 -127q-121 -125 -221 -333q-98 -203 -98 -394zM662 1680q0 70 79 152q80 83 162 83q48 0 87 -25t57 -55q51 -82 88 -88q35 6 78 75q43 68 83 68q52 0 52 -70t-66 -147q-66 -76 -141 -76q-113 0 -230 183q-39 -21 -70 -64 q-21 -29 -57 -74q-24 -30 -55 -30q-67 0 -67 68z" />
<glyph unicode="&#xd6;" horiz-adv-x="1255" d="M111 438q0 190 68 379q70 193 172 336q102 141 229 235q124 91 231 91q172 0 287 -157q114 -156 114 -353t-108 -413q-108 -215 -290 -369q-180 -152 -365 -152q-135 0 -237 133q-101 132 -101 270zM297 451q0 -114 49 -184t115 -70q104 0 236 120q137 125 231 298 q96 177 96 335q0 157 -60 256t-143 99q-82 0 -205 -127q-121 -125 -221 -333q-98 -203 -98 -394zM733 1784q0 38 31 75q29 35 62 35q32 0 75 -79t43 -112q0 -32 -17 -49q-18 -18 -38 -18q-44 0 -101 55q-55 54 -55 93zM1042 1784q0 38 31 75q29 35 63 35q31 0 74 -79 t43 -111q0 -31 -18 -49q-19 -19 -37 -19q-43 0 -100 55q-56 54 -56 93z" />
<glyph unicode="&#xd7;" horiz-adv-x="999" d="M84 339q0 21 40 57q66 58 131 113q84 70 167 150q-98 131 -176 265q-72 123 -72 161q0 39 37 39q60 0 119 -23q61 -24 61 -57q0 -69 146 -266q222 243 299 301q60 45 90 45t67 -31t37 -61q0 -12 -53 -62q-92 -87 -161 -150q-100 -92 -181 -171q11 -14 36.5 -46t37.5 -47 q18 -22 43 -54.5t28 -36.5q44 -57 56 -72q53 -73 53 -94q0 -45 -51 -45q-95 0 -320 281q-237 -231 -275 -255q-41 -26 -65 -26t-59 32t-35 53z" />
<glyph unicode="&#xd8;" horiz-adv-x="1255" d="M74 91q0 25 92 153q-55 100 -55 194q0 190 68 379q70 193 172 336q102 141 229 235q124 91 231 91q151 0 268 -127q108 112 150 112q49 0 49 -50q0 -51 -88 -146l-31 -35q64 -130 64 -294q0 -165 -109 -383q-107 -215 -289 -369q-179 -152 -364 -152q-117 0 -217 104 q-90 -108 -115 -108q-26 0 -40 17q-15 18 -15 43zM297 451q0 -23 2 -39q70 87 125 153q26 32 64 78.5t100 122.5t106 131q195 239 267 322q-62 86 -142 86t-203 -127q-121 -125 -221 -333q-98 -203 -98 -394zM350 270q51 -73 121 -73q105 0 237 120q135 123 230 298 q96 177 96 323q0 74 -14 137q-327 -373 -670 -805z" />
<glyph unicode="&#xd9;" horiz-adv-x="1212" d="M164 434q0 160 86 509t86 468q0 34 8 48t38 14t80 -55t50 -127t-84 -396t-84 -439q0 -117 43 -188t111 -71t149 77q83 78 153 204q72 128 119 307q48 181 48 366q0 77 -10 172q-9 86 -9 106q0 44 37 44q47 0 109 -71q61 -70 61 -181q0 -314 -92 -592q-92 -277 -248 -442 q-155 -164 -332 -164q-130 0 -224 124q-95 125 -95 287zM467 1886q0 24 31 63q30 38 57 38q25 0 44 -14q18 -13 59 -59q34 -38 114 -121q72 -75 81 -94t9 -39t-16 -37t-36 -17t-41 12q-20 12 -62 44q-27 21 -62 46q-8 6 -24.5 18t-22.5 16q-27 20 -39 27q-11 7 -32 23 q-17 13 -26 22l-18 18q-10 12 -13 20q-3 9 -3 34z" />
<glyph unicode="&#xda;" horiz-adv-x="1212" d="M164 434q0 160 86 509t86 468q0 34 8 48t38 14t80 -55t50 -127t-84 -396t-84 -439q0 -117 43 -188t111 -71t149 77q83 78 153 204q72 128 119 307q48 181 48 366q0 77 -10 172q-9 86 -9 107q0 43 37 43q47 0 109 -71q61 -70 61 -181q0 -314 -92 -592q-92 -277 -248 -442 q-155 -164 -332 -164q-130 0 -224 124q-95 125 -95 287zM686 1666q0 26 26 60q24 31 75 82q40 40 80 78q20 19 46 45q11 11 35 31q36 31 64 31t55 -38q27 -37 27 -68q0 -27 -5 -44q-4 -13 -25 -31q-15 -12 -36 -26q-104 -70 -107 -72q-35 -22 -67 -46q-36 -26 -40 -29 q-3 -2 -12.5 -7.5t-15.5 -9.5q-26 -16 -47 -16t-37 16t-16 44z" />
<glyph unicode="&#xdb;" horiz-adv-x="1212" d="M164 434q0 160 86 509t86 468q0 34 8 48t38 14t80 -55t50 -127t-84 -396t-84 -439q0 -117 43 -188t111 -71t149 77q83 78 153 204q72 128 119 307q48 181 48 366q0 77 -10 172q-9 86 -9 107q0 43 37 43q47 0 109 -71q61 -70 61 -181q0 -314 -92 -592q-92 -277 -248 -442 q-155 -164 -332 -164q-130 0 -224 124q-95 125 -95 287zM408 1700q0 38 32 73q31 34 83 64q63 36 83 49q42 27 53 33q42 24 44 25q26 13 41 18q18 6 32 6q15 0 32 -10q16 -9 28 -23q4 -4 15 -18.5t18 -23.5q9 -11 21 -25.5t15 -18.5q5 -7 42 -47q30 -33 42 -48 q4 -4 14.5 -17t16.5 -21q33 -44 33 -67q0 -24 -16 -37t-42 -13q-27 0 -73 39q-48 40 -74 72q-45 55 -80 100q-61 -30 -120 -77q-67 -53 -103 -78q-41 -29 -70 -29q-27 0 -48 19q-19 18 -19 55z" />
<glyph unicode="&#xdc;" horiz-adv-x="1212" d="M164 434q0 160 86 509t86 468q0 34 8 48t38 14t80 -55t50 -127t-84 -396t-84 -439q0 -117 43 -188t111 -71t149 77q83 78 153 204q72 128 119 307q48 181 48 366q0 77 -10 172q-9 86 -9 106q0 44 37 44q47 0 109 -71q61 -70 61 -181q0 -314 -92 -592q-92 -277 -248 -442 q-155 -164 -332 -164q-130 0 -224 124q-95 125 -95 287zM487 1784q0 38 31 75q29 35 63 35q31 0 74 -79t43 -112q0 -32 -17 -49q-18 -18 -38 -18q-43 0 -100 55q-56 54 -56 93zM797 1784q0 39 30 75q29 35 63 35q32 0 75 -79t43 -111q0 -30 -19 -49t-37 -19q-43 0 -100 55 q-55 54 -55 93z" />
<glyph unicode="&#xdd;" horiz-adv-x="1177" d="M188 1323q0 143 82 143q34 0 53 -63q19 -61 48 -182q29 -120 75 -218q47 -100 113 -169q67 -70 111 -70q37 0 134 175q108 195 199 351q102 176 144 176q43 0 70 -30q26 -29 26 -74q0 -43 -78 -172q-69 -114 -209 -341q-134 -217 -262 -460q-130 -247 -180 -309t-80 -62 q-45 0 -45 74q0 57 57 174q20 38 29 59q6 14 33 66q7 13 19 35.5t16 31.5q4 8 17 32.5t21 40.5q26 51 38 73q-119 29 -223 153q-101 120 -154 272q-54 154 -54 294zM698 1666q0 27 26 59q33 40 101 110q44 40 83 79q23 23 53 48q36 31 62 31q28 0 55 -39q28 -40 28 -67 q0 -26 -5 -41q-3 -9 -14 -22q-10 -12 -27 -25q-16 -12 -36 -25q-35 -22 -51 -32q-33 -20 -59 -38q-21 -14 -50 -37q-30 -24 -39 -29q-24 -15 -26 -16q-26 -16 -47 -16t-37 16q-17 17 -17 44z" />
<glyph unicode="&#xde;" horiz-adv-x="1030" d="M104 166q0 41 56 256q164 653 164 909q0 34 9 49t43 15q32 0 86 -54q52 -52 52 -129q0 -37 -12 -106q64 16 114 16q125 0 236 -107q113 -108 113 -224q0 -160 -154 -275q-185 -139 -479 -139q-79 -289 -111 -332q-10 -14 -20 -14q-31 0 -64 46q-33 47 -33 89zM373 539 q28 -2 65 2q137 11 246 83q109 73 109 164q0 65 -58 108q-57 42 -127 42q-68 0 -145 -33q-51 -216 -90 -366z" />
<glyph unicode="&#xdf;" horiz-adv-x="1198" d="M100 141q0 35 31 150q125 471 180 768q33 182 138 289q105 106 280 106q133 0 238 -121q104 -120 104 -252q0 -60 -27 -113q-28 -54 -64 -83q-50 -40 -75 -56q-18 -12 -63 -44q-27 -19 -27 -32t40 -47q38 -32 88 -73q47 -38 88 -108q40 -68 40 -146q0 -155 -123 -249 q-124 -95 -282 -95q-89 0 -137 33t-48 79q0 43 54 43l102 -4q90 0 177 55q85 54 85 144q0 60 -44 118q-42 55 -95 91q-51 35 -95 83q-44 49 -44 84q0 34 44 69t95 62q50 27 95 76q44 49 44 101q0 90 -62 152q-63 63 -136 63t-133 -75q-62 -77 -85 -201q-198 -977 -295 -977 q-28 0 -58 36t-30 74z" />
<glyph unicode="&#xe0;" horiz-adv-x="966" d="M20 279q0 120 91 304q90 182 233 322q145 142 270 142q91 0 170 -94q78 -93 78 -168q0 -74 -51 -152q25 -31 25 -53q0 -55 -26 -197q-28 -153 -31 -182q-5 -43 -9 -69q-1 -8 -3.5 -25t-4.5 -25q-10 -51 -39 -51q-73 0 -88 229q-184 -229 -338 -229q-93 0 -185 81t-92 167 zM193 279q0 -36 28 -57q29 -21 68 -21q96 0 217 130q122 131 168 316q6 31 35 37v2q0 191 -74 191q-80 0 -188 -114t-181 -257t-73 -227zM498 1427q0 29 30 67t68 38q26 0 76 -53q7 -7 37 -39q83 -89 94 -100q72 -75 81 -94q9 -20 9 -39q0 -21 -17 -38q-18 -18 -36 -18 q-20 0 -40 13q-23 15 -61 44q-10 7 -23 17.5t-22 17.5t-16 12q-35 26 -49 35q-9 6 -22 15.5t-17 11.5q-18 11 -31 21q-16 12 -28 22q-6 5 -19 20q-14 17 -14 47z" />
<glyph unicode="&#xe1;" horiz-adv-x="966" d="M20 279q0 120 91 304q90 182 233 322q145 142 270 142q91 0 170 -94q78 -93 78 -168q0 -74 -51 -152q25 -31 25 -53q0 -55 -26 -197q-28 -153 -31 -182q-5 -43 -9 -69q-1 -8 -3.5 -25t-4.5 -25q-10 -51 -39 -51q-73 0 -88 229q-184 -229 -338 -229q-93 0 -185 81t-92 167 zM193 279q0 -36 28 -57q29 -21 68 -21q96 0 217 130q122 131 168 316q6 31 35 37v2q0 191 -74 191q-80 0 -188 -114t-181 -257t-73 -227zM719 1214q0 30 25 62q26 33 75 81q14 13 41 40t38 37q20 19 46 45q5 5 10.5 10t13 11.5t11.5 10.5q35 29 63 29q29 0 56 -38 q26 -36 26 -67q0 -27 -5 -44q-4 -14 -24 -31q-22 -19 -34 -27q-72 -47 -111 -72q-29 -19 -65 -47q-24 -18 -39 -28q-52 -35 -74 -35q-24 0 -38 17q-15 18 -15 46z" />
<glyph unicode="&#xe2;" horiz-adv-x="966" d="M20 279q0 120 91 304q90 182 233 322q145 142 270 142q91 0 170 -94q78 -93 78 -168q0 -74 -51 -152q25 -31 25 -53q0 -55 -26 -197q-28 -153 -31 -182q-5 -43 -9 -69q-1 -8 -3.5 -25t-4.5 -25q-10 -51 -39 -51q-73 0 -88 229q-184 -229 -338 -229q-93 0 -185 81t-92 167 zM193 279q0 -36 28 -57q29 -21 68 -21q96 0 217 130q122 131 168 316q6 31 35 37v2q0 191 -74 191q-80 0 -188 -114t-181 -257t-73 -227zM440 1247q0 74 142 154q19 10 55 33q26 17 53 32q4 2 19 11t24 14q48 25 68 25q19 0 38 -11q16 -9 27 -22q5 -5 34 -42q9 -11 21 -25.5 t15 -18.5q5 -7 42 -47q30 -33 42 -48q28 -35 31 -39q17 -23 25 -42q7 -17 7 -34q0 -16 -15 -28t-42 -12q-28 0 -74 39q-48 40 -73 71q-29 36 -80 101q-57 -28 -120 -78q-59 -46 -104 -78q-40 -28 -68 -28q-27 0 -47 18t-20 55z" />
<glyph unicode="&#xe3;" horiz-adv-x="966" d="M20 279q0 120 91 304q90 182 233 322q145 142 270 142q91 0 170 -94q78 -93 78 -168q0 -74 -51 -152q25 -31 25 -53q0 -55 -26 -197q-28 -153 -31 -182q-5 -43 -9 -69q-1 -8 -3.5 -25t-4.5 -25q-10 -51 -39 -51q-73 0 -88 229q-184 -229 -338 -229q-93 0 -185 81t-92 167 zM193 279q0 -36 28 -57q29 -21 68 -21q96 0 217 130q122 131 168 316q6 31 35 37v2q0 191 -74 191q-80 0 -188 -114t-181 -257t-73 -227zM446 1221q0 75 80 158t162 83q50 0 87 -24t56 -54q51 -84 89 -90q34 6 78 75t83 69q52 0 52 -71q0 -69 -66 -146q-66 -76 -141 -76 q-112 0 -230 180q-39 -18 -70 -61q-21 -29 -57 -74q-25 -31 -55 -31t-49 17t-19 45z" />
<glyph unicode="&#xe4;" horiz-adv-x="966" d="M20 279q0 120 91 304q90 182 233 322q145 142 270 142q91 0 170 -94q78 -93 78 -168q0 -74 -51 -152q25 -31 25 -53q0 -55 -26 -197q-28 -153 -31 -182q-5 -43 -9 -69q-1 -8 -3.5 -25t-4.5 -25q-10 -51 -39 -51q-73 0 -88 229q-184 -229 -338 -229q-93 0 -185 81t-92 167 zM193 279q0 -36 28 -57q29 -21 68 -21q96 0 217 130q122 131 168 316q6 31 35 37v2q0 191 -74 191q-80 0 -188 -114t-181 -257t-73 -227zM518 1331q0 38 31 75q30 36 62 36q31 0 75 -80q43 -79 43 -111t-17 -49q-18 -18 -36 -18q-48 0 -103 54t-55 93zM827 1331q0 38 31 75 q30 36 63 36q30 0 74 -80q43 -79 43 -111q0 -31 -18 -49t-37 -18q-45 0 -100 54q-56 54 -56 93z" />
<glyph unicode="&#xe5;" horiz-adv-x="966" d="M20 279q0 120 91 304q90 182 233 322q145 142 270 142q91 0 170 -94q78 -93 78 -168q0 -74 -51 -152q25 -31 25 -53q0 -55 -26 -197q-28 -153 -31 -182q-5 -43 -9 -69q-1 -8 -3.5 -25t-4.5 -25q-10 -51 -39 -51q-73 0 -88 229q-184 -229 -338 -229q-93 0 -185 81t-92 167 zM193 279q0 -36 28 -57q29 -21 68 -21q96 0 217 130q122 131 168 316q6 31 35 37v2q0 191 -74 191q-80 0 -188 -114t-181 -257t-73 -227zM627 1311q0 79 60 148t136 69t122 -52t46 -131t-60 -148t-135 -69t-122 52t-47 131zM745 1317q0 -37 16 -59q15 -21 41 -21t47 29 q21 28 21 66q0 39 -15 60t-41 21t-47 -30q-22 -31 -22 -66z" />
<glyph unicode="&#xe6;" horiz-adv-x="1521" d="M59 283q0 123 83 303q81 175 225 319q142 142 276 142q71 0 135 -50t96 -120q152 170 304 170q122 0 222 -115q99 -114 99 -224t-118 -179q-117 -68 -257 -68q-139 0 -278 33q-29 -87 -29 -159q0 -73 44 -112q43 -39 146 -39q100 0 208 36t118 36q53 0 53 -41 q0 -56 -124 -120t-252 -64q-130 0 -223 71q-95 72 -117 189q-97 -131 -176 -194q-82 -66 -171 -66q-90 0 -177 81t-87 171zM227 279q0 -36 27 -57t59 -21q95 0 196 100q99 98 189 279q21 69 56 127q-6 170 -94 170q-86 0 -192 -115q-105 -114 -173 -256t-68 -227zM895 610 q86 -18 188 -18q104 0 181 34t77 90q0 54 -50 112q-49 57 -113 57q-65 0 -145 -79q-81 -80 -138 -196z" />
<glyph unicode="&#xe7;" horiz-adv-x="915" d="M66 334q0 138 86 307t222 287q137 119 265 119q84 0 147 -76q64 -78 64 -133q0 -17 -10 -28t-30 -11t-69 37q-48 36 -88 36q-112 0 -258 -194q-147 -195 -147 -340q0 -63 40 -100t129 -37t164 21q70 20 115 43q42 22 64 22q39 0 39 -39q0 -58 -135 -134 q-136 -77 -254 -83q-22 -53 -50 -99h7q64 0 126 -36q64 -37 64 -80q-2 -91 -126 -146q-123 -55 -257 -55q-42 0 -66 14q-26 15 -26 35q0 26 55 38q48 10 133 30q77 18 115 57q-15 18 -98 36q-84 18 -84 40t34 93q18 38 44 97q-90 37 -153 114q-62 75 -62 165z" />
<glyph unicode="&#xe8;" horiz-adv-x="897" d="M31 367q0 145 78 304q79 161 201 267q126 109 245 109q120 0 220 -115q99 -114 99 -224t-118 -179q-117 -68 -268 -68q-148 0 -267 33q-28 -88 -28 -161q0 -71 44 -110q43 -39 144 -39q100 0 208 36t118 36q53 0 53 -41q0 -56 -124 -120t-243 -64q-158 0 -261 95 q-101 94 -101 241zM266 608q89 -16 193 -16q101 0 178 34q78 34 78 89q0 54 -50 112t-100 58q-78 0 -158 -79q-81 -80 -141 -198zM340 1432q0 23 31 62q30 38 67 38q28 0 78 -53q9 -12 36 -40q72 -77 95 -100q72 -73 81 -93t9 -39q0 -21 -17 -38q-18 -18 -36 -18 q-20 0 -40 13q-18 12 -61 45q-46 36 -64 47q-24 15 -48 33t-39 27q-13 8 -32 22l-10 8t-9.5 8t-6.5 6q-13 11 -18 18q-7 9 -12 20q-4 8 -4 34z" />
<glyph unicode="&#xe9;" horiz-adv-x="897" d="M31 367q0 145 78 304q79 161 201 267q126 109 245 109q120 0 220 -115q99 -114 99 -224t-118 -179q-117 -68 -268 -68q-148 0 -267 33q-28 -88 -28 -161q0 -71 44 -110q43 -39 144 -39q100 0 208 36t118 36q53 0 53 -41q0 -56 -124 -120t-243 -64q-158 0 -261 95 q-101 94 -101 241zM266 608q89 -16 193 -16q101 0 178 34q78 34 78 89q0 54 -50 112t-100 58q-78 0 -158 -79q-81 -80 -141 -198zM561 1213q0 27 25 61q23 31 74 81q13 13 41.5 40t39.5 38l46 46q12 13 36 32q38 29 64 29t53 -38q27 -37 27 -67q0 -27 -5 -44q-4 -13 -25 -31 q-19 -16 -36 -27q-69 -47 -108 -72q-35 -23 -66 -47q-24 -18 -39 -28q-53 -35 -75 -35t-36 17q-16 19 -16 45z" />
<glyph unicode="&#xea;" horiz-adv-x="897" d="M31 367q0 145 78 304q79 161 201 267q126 109 245 109q120 0 220 -115q99 -114 99 -224t-118 -179q-117 -68 -268 -68q-148 0 -267 33q-28 -88 -28 -161q0 -71 44 -110q43 -39 144 -39q100 0 208 36t118 36q53 0 53 -41q0 -56 -124 -120t-243 -64q-158 0 -261 95 q-101 94 -101 241zM266 608q89 -16 193 -16q101 0 178 34q78 34 78 89q0 54 -50 112t-100 58q-78 0 -158 -79q-81 -80 -141 -198zM283 1247q0 38 32 73q31 34 83 64q46 27 83 50q18 11 54 32q4 2 19 11t24 14q52 25 68 25q18 0 37 -11q18 -10 28 -22q3 -4 11.5 -15t18 -22.5 t18.5 -23.5q26 -34 61 -72q30 -33 42 -48q28 -35 31 -39q19 -25 26 -42t7 -34q0 -16 -15 -28t-42 -12q-28 0 -74 39q-51 43 -74 71q-29 36 -80 101q-53 -28 -120 -79q-90 -68 -102 -77q-40 -28 -69 -28q-28 0 -48 18q-19 18 -19 55z" />
<glyph unicode="&#xeb;" horiz-adv-x="897" d="M31 367q0 145 78 304q79 161 201 267q126 109 245 109q120 0 220 -115q99 -114 99 -224t-118 -179q-117 -68 -268 -68q-148 0 -267 33q-28 -88 -28 -161q0 -71 44 -110q43 -39 144 -39q100 0 208 36t118 36q53 0 53 -41q0 -56 -124 -120t-243 -64q-158 0 -261 95 q-101 94 -101 241zM266 608q89 -16 193 -16q101 0 178 34q78 34 78 89q0 54 -50 112t-100 58q-78 0 -158 -79q-81 -80 -141 -198zM362 1332q0 40 30 75t63 35q32 0 74 -80t42 -111t-17 -48t-36 -17q-44 0 -100 53t-56 93zM670 1331q0 40 29 75q30 36 63 36q32 0 76 -80 q43 -79 43 -111q0 -30 -18 -48q-17 -17 -36 -17q-46 0 -102 53q-55 52 -55 92z" />
<glyph unicode="&#xec;" horiz-adv-x="487" d="M74 111q0 34 20 113q35 138 53 203q29 106 79 323q46 202 63 249q17 48 49 48t68 -48q34 -46 34 -90q0 -111 -209 -774q-35 -102 -90 -102q-29 0 -48 23t-19 55zM139 1432q0 24 30 62t67 38q27 0 77 -53q9 -12 36 -40q73 -77 95 -100q72 -73 81 -93q10 -22 10 -39 q0 -20 -18 -38t-36 -18q-20 0 -40 13q-18 12 -61 45t-62 47q-42 30 -48 34q-9 6 -22 15.5t-17 11.5q-12 7 -30 21q-16 12 -28 22q-10 8 -18 19q-11 14 -13 20q-3 7 -3 33z" />
<glyph unicode="&#xed;" horiz-adv-x="487" d="M74 111q0 34 20 113q35 138 53 203q29 106 79 323q46 202 63 249q17 48 49 48t68 -48q34 -46 34 -90q0 -111 -209 -774q-35 -102 -90 -102q-29 0 -48 23t-19 55zM358 1214q0 28 26 62q26 33 75 81q14 13 41 40t38 37q20 19 46 45q10 10 34 32q35 29 64 29q28 0 55 -38 q27 -37 27 -67q0 -27 -5 -44q-4 -13 -25 -31q-22 -19 -34 -27q-21 -14 -42 -27.5t-40.5 -26.5t-27.5 -18q-35 -23 -66 -47q-24 -18 -39 -28q-53 -35 -74 -35q-23 0 -37 17q-16 19 -16 46z" />
<glyph unicode="&#xee;" horiz-adv-x="487" d="M74 111q0 34 20 113q35 138 53 203q29 106 79 323q46 202 63 249q17 48 49 48t68 -48q34 -46 34 -90q0 -111 -209 -774q-35 -102 -90 -102q-29 0 -48 23t-19 55zM80 1247q0 75 141 154q19 10 55 33q18 11 54 32q42 24 44 25q26 13 41 18q21 7 31 7q13 0 32 -11 q18 -10 28 -22q5 -5 34 -42q9 -11 20.5 -25.5t14.5 -18.5q5 -7 42 -47q30 -33 42 -48q16 -20 31 -40q33 -40 33 -66q0 -25 -15 -37t-42 -12q-28 0 -74 39q-51 43 -74 71q-29 36 -80 101q-57 -28 -120 -78q-67 -53 -103 -78q-40 -28 -69 -28q-28 0 -47 18t-19 55z" />
<glyph unicode="&#xef;" horiz-adv-x="487" d="M74 111q0 34 20 113q35 138 53 203q29 106 79 323q46 202 63 249q17 48 49 48t68 -48q34 -46 34 -90q0 -111 -209 -774q-35 -102 -90 -102q-29 0 -48 23t-19 55zM160 1332q0 41 28 75q29 35 62 35q32 0 76 -80q43 -79 43 -111q0 -30 -18 -48q-17 -17 -36 -17 q-46 0 -101 53q-54 53 -54 93zM467 1331q0 39 30 75t62 36t76 -80q43 -79 43 -111q0 -29 -19 -48q-17 -17 -36 -17q-45 0 -101 53q-55 52 -55 92z" />
<glyph unicode="&#xf0;" horiz-adv-x="925" d="M63 362q0 239 139 417q138 177 324 177q79 0 154 -71q-7 122 -51 227q-171 -65 -207 -65q-66 0 -66 36q0 31 48 57q43 23 106 46l65 24q-74 107 -137 107q-16 0 -50 -15q-37 -16 -52 -16q-37 0 -37 46t51 87q52 41 107 41q152 0 276 -188q156 61 180 61q48 0 48 -33 q0 -37 -175 -120q80 -171 80 -363q0 -193 -72 -374q-71 -179 -201 -297q-127 -115 -276 -115q-104 0 -179 92q-75 91 -75 239zM244 346q0 -66 25 -117q26 -53 63 -53q111 0 223 185t127 387q-60 75 -121 75q-113 0 -215 -137q-102 -136 -102 -340z" />
<glyph unicode="&#xf1;" horiz-adv-x="1089" d="M45 158q0 7 38 127q37 119 54 180q55 206 62 440q6 150 43 150q45 0 89 -47t44 -104q0 -59 -34 -217q-35 -165 -79 -300q197 336 321 496q126 164 204 164q79 0 150 -84q71 -85 71 -179q0 -135 -68 -360q-128 -393 -221 -393q-47 0 -47 61q0 49 45 178q121 341 121 471 q0 43 -20 74t-37 31q-18 0 -33 -7q-18 -8 -35 -25q-24 -24 -36 -37q-13 -14 -40 -50t-41 -57q-37 -56 -46 -70q-9 -15 -25 -40t-22 -35q-42 -68 -51 -82q-11 -18 -29.5 -45.5t-24.5 -37.5q-31 -49 -56 -90q-40 -66 -58 -92q-24 -34 -51 -72q-51 -75 -80 -75q-28 0 -68 46 t-40 81zM317 1228q0 68 80 151t162 83q49 0 87 -24q37 -24 56 -54q51 -84 89 -90q35 6 78 75t83 69q52 0 52 -71q0 -69 -66 -146q-66 -76 -141 -76q-112 0 -230 180q-39 -18 -70 -61q-21 -29 -57 -74q-25 -31 -55 -31q-68 0 -68 69z" />
<glyph unicode="&#xf2;" horiz-adv-x="925" d="M74 372q0 150 70 308t187 263q116 104 237 104t204 -104q82 -103 82 -252t-72 -303q-72 -155 -197 -256t-268 -101q-105 0 -174 96t-69 245zM250 367q0 -158 78 -197q147 28 251 202q103 172 103 326q0 68 -23 132q-23 65 -65 92q-140 -39 -243 -219q-101 -177 -101 -336 zM369 1432q0 24 30 62t59 38q28 0 45 -13q10 -7 57 -58q12 -13 28.5 -30.5t41.5 -44t43 -45.5q75 -80 82 -95q9 -20 9 -39q0 -20 -18 -38t-35 -18q-19 0 -39 13q-12 8 -61 44q-14 11 -34.5 26.5t-27.5 20.5q-35 26 -49 35q-9 6 -22 15.5t-17 11.5q-18 11 -31 21 q-16 12 -28 22q-10 8 -18 19q-9 11 -12 20q-3 7 -3 33z" />
<glyph unicode="&#xf3;" horiz-adv-x="925" d="M74 372q0 150 70 308t187 263q116 104 237 104t204 -104q82 -103 82 -252t-72 -303q-72 -155 -197 -256t-268 -101q-105 0 -174 96t-69 245zM250 367q0 -158 78 -197q147 28 251 202q103 172 103 326q0 68 -23 132q-23 65 -65 92q-140 -39 -243 -219q-101 -177 -101 -336 zM590 1213q0 29 25 61q25 33 75 81q66 64 80 78l46 46q12 13 36 32q38 29 63 29q27 0 54 -38q26 -36 26 -67q0 -27 -5 -44q-4 -14 -24 -31q-20 -16 -36 -27q-36 -25 -109 -72q-29 -19 -65 -47q-24 -18 -39 -28q-53 -35 -75 -35q-23 0 -37 17q-15 18 -15 45z" />
<glyph unicode="&#xf4;" horiz-adv-x="925" d="M74 372q0 150 70 308t187 263q116 104 237 104t204 -104q82 -103 82 -252t-72 -303q-72 -155 -197 -256t-268 -101q-105 0 -174 96t-69 245zM250 367q0 -158 78 -197q147 28 251 202q103 172 103 326q0 68 -23 132q-23 65 -65 92q-140 -39 -243 -219q-101 -177 -101 -336 zM311 1247q0 74 142 154q19 10 55 33q26 17 53 32q42 24 44 25q26 13 41 18q21 7 32 7q13 0 32 -11q16 -9 27 -22q5 -5 34 -42q9 -11 21 -25.5t15 -18.5q5 -7 42 -47q30 -33 42 -48q16 -20 31 -40q32 -39 32 -66q0 -25 -15 -37t-42 -12t-74 39q-48 40 -73 71q-29 36 -80 101 q-57 -28 -120 -78q-59 -46 -104 -78q-40 -28 -68 -28t-47 18q-20 18 -20 55z" />
<glyph unicode="&#xf5;" horiz-adv-x="925" d="M74 372q0 150 70 308t187 263q116 104 237 104t204 -104q82 -103 82 -252t-72 -303q-72 -155 -197 -256t-268 -101q-105 0 -174 96t-69 245zM250 367q0 -158 78 -197q147 28 251 202q103 172 103 326q0 68 -23 132q-23 65 -65 92q-140 -39 -243 -219q-101 -177 -101 -336 zM317 1221q0 75 81 158t163 83q47 0 85 -24q37 -24 56 -54q51 -84 89 -90q35 6 78 75t83 69q52 0 52 -71q0 -69 -66 -146q-66 -76 -141 -76q-114 0 -228 180q-49 -23 -97 -94q-49 -72 -83 -72q-72 0 -72 62z" />
<glyph unicode="&#xf6;" horiz-adv-x="925" d="M74 372q0 150 70 308t187 263q116 104 237 104t204 -104q82 -103 82 -252t-72 -303q-72 -155 -197 -256t-268 -101q-105 0 -174 96t-69 245zM250 367q0 -158 78 -197q147 28 251 202q103 172 103 326q0 68 -23 132q-23 65 -65 92q-140 -39 -243 -219q-101 -177 -101 -336 zM391 1332q0 40 29 75t61 35t76 -80q43 -79 43 -111q0 -31 -17 -48t-36 -17q-45 0 -101 53q-55 52 -55 93zM698 1331q0 39 30 75t63 36q31 0 75 -80q43 -79 43 -111q0 -31 -17 -48t-38 -17q-44 0 -100 53t-56 92z" />
<glyph unicode="&#xf7;" horiz-adv-x="1228" d="M82 698q0 43 55 43q338 0 618 20q266 19 347 19q139 0 139 -45q0 -75 -335 -119q-331 -43 -697 -43q-49 0 -88 41q-39 40 -39 84zM412 275q0 47 35 89q36 44 74 44t88 -100t50 -150q0 -16 -22 -37q-23 -21 -43 -21q-51 0 -117 66q-65 65 -65 109zM592 1087q0 47 36 90 q36 44 73 44q39 0 89 -101q50 -102 50 -153q0 -16 -23 -36t-43 -20q-51 0 -117 66q-65 65 -65 110z" />
<glyph unicode="&#xf8;" horiz-adv-x="935" d="M41 70q0 23 76 118q-43 82 -43 174q0 154 78 313q78 160 206 265q130 107 265 107q97 0 172 -70q80 74 129 74t49 -41q0 -30 -74 -115l-25 -29q35 -78 35 -164q0 -239 -177 -455t-394 -216q-82 0 -158 69q-67 -69 -98 -69q-41 0 -41 39zM231 332q229 264 330 384t137 158 q-30 37 -71 48q-147 -17 -272 -212q-124 -194 -124 -368v-10zM274 201q29 -35 64 -43q109 5 210 106q100 100 155 230t55 225v18q-328 -367 -484 -536z" />
<glyph unicode="&#xf9;" horiz-adv-x="980" d="M31 268q0 197 113 487q114 292 190 292q35 0 62 -34q28 -36 28 -65q0 -32 -55 -145q-164 -345 -164 -533q0 -34 20 -54q21 -21 49 -21q78 0 186 137q105 132 195 319q87 179 131 338q6 28 17 45q8 13 36 13q25 0 67 -54q40 -52 40 -102q0 -27 -90 -316 q-87 -278 -139 -458q-24 -86 -70 -86q-27 0 -45 22t-18 82q0 57 47 215q-84 -136 -187 -229q-100 -90 -183 -90t-157 78q-73 77 -73 159zM367 1432q0 24 30 62t59 38q28 0 45 -13q10 -7 57 -58q12 -13 28.5 -30.5t41.5 -44t43 -45.5q75 -80 82 -95q9 -20 9 -39 q0 -20 -18 -38t-35 -18q-19 0 -39 13q-12 8 -61 44q-14 11 -34.5 26.5t-27.5 20.5q-35 26 -49 35q-9 6 -22 15.5t-17 11.5q-18 11 -31 21q-16 12 -28 22q-10 8 -18 19q-9 11 -12 20q-3 7 -3 33z" />
<glyph unicode="&#xfa;" horiz-adv-x="980" d="M31 268q0 197 113 487q114 292 190 292q35 0 62 -34q28 -36 28 -65q0 -32 -55 -145q-164 -345 -164 -533q0 -34 20 -54q21 -21 49 -21q78 0 186 137q105 132 195 319q87 179 131 338q6 28 17 45q8 13 36 13q25 0 67 -54q40 -52 40 -102q0 -27 -90 -316 q-87 -278 -139 -458q-24 -86 -70 -86q-27 0 -45 22t-18 82q0 57 47 215q-84 -136 -187 -229q-100 -90 -183 -90t-157 78q-73 77 -73 159zM588 1214q0 30 25 62q25 33 75 81q14 13 41 40t38 37q20 19 46 45q5 5 10.5 10t13 11.5t11.5 10.5q35 29 63 29q29 0 56 -38 q26 -36 26 -67q0 -27 -5 -44q-4 -14 -24 -31q-22 -19 -34 -27q-72 -47 -111 -72q-29 -19 -65 -47q-24 -18 -39 -28q-53 -35 -75 -35q-23 0 -37 17q-15 18 -15 46z" />
<glyph unicode="&#xfb;" horiz-adv-x="980" d="M31 268q0 197 113 487q114 292 190 292q35 0 62 -34q28 -36 28 -65q0 -32 -55 -145q-164 -345 -164 -533q0 -34 20 -54q21 -21 49 -21q78 0 186 137q105 132 195 319q87 179 131 338q6 28 17 45q8 13 36 13q25 0 67 -54q40 -52 40 -102q0 -27 -90 -316 q-87 -278 -139 -458q-24 -86 -70 -86q-27 0 -45 22t-18 82q0 57 47 215q-84 -136 -187 -229q-100 -90 -183 -90t-157 78q-73 77 -73 159zM309 1247q0 74 142 154q19 10 55 33q26 17 53 32q4 2 19 11t24 14q52 25 69 25q18 0 37 -11q16 -9 27 -22q5 -5 34 -42q9 -11 21 -25.5 t15 -18.5q5 -7 42 -47q30 -33 42 -48q16 -20 31 -40q32 -39 32 -66q0 -25 -15 -37t-42 -12t-74 39q-48 40 -73 71q-29 36 -80 101q-57 -28 -120 -78q-59 -46 -104 -78q-40 -28 -68 -28t-47 18q-20 18 -20 55z" />
<glyph unicode="&#xfc;" horiz-adv-x="980" d="M31 268q0 197 113 487q114 292 190 292q35 0 62 -34q28 -36 28 -65q0 -32 -55 -145q-164 -345 -164 -533q0 -34 20 -54q21 -21 49 -21q78 0 186 137q105 132 195 319q87 179 131 338q6 28 17 45q8 13 36 13q25 0 67 -54q40 -52 40 -102q0 -27 -90 -316 q-87 -278 -139 -458q-24 -86 -70 -86q-27 0 -45 22t-18 82q0 57 47 215q-84 -136 -187 -229q-100 -90 -183 -90t-157 78q-73 77 -73 159zM389 1332q0 40 29 75t61 35t76 -80q43 -79 43 -111q0 -31 -17 -48t-36 -17q-47 0 -102 53q-54 53 -54 93zM696 1331q0 39 30 75t62 36 t76 -80q43 -79 43 -111q0 -31 -17 -48t-38 -17q-44 0 -100 53t-56 92z" />
<glyph unicode="&#xfd;" horiz-adv-x="960" d="M-39 -285q0 29 26 64t44 35q19 0 59 -45q119 -136 203 -136q64 0 115 112q49 107 97 252q50 151 51 155t3 9.5t4.5 13.5t4.5 13q3 8 7.5 21.5l6.5 19.5q-146 -198 -287 -198q-87 0 -159 80q-73 81 -73 188q0 103 54 293q52 181 125 319q73 136 116 136q38 0 69 -34 q32 -35 32 -69q0 -33 -53 -145q-166 -339 -166 -529q0 -34 20 -54q21 -21 49 -21q74 0 176 131q105 135 189 311q69 145 149 387q8 23 41 23t71 -49t38 -107q0 -42 -84 -279q-101 -286 -114 -322q-8 -24 -35 -99t-45 -126q-15 -42 -47.5 -134t-49.5 -140 q-102 -293 -307 -293q-116 0 -223 71t-107 146zM637 1213q0 27 26 61q28 37 74 81q66 64 80 78l46 46q5 5 34 32q40 29 66 29t53 -38q26 -36 26 -67q0 -27 -5 -44q-4 -14 -24 -31q-22 -19 -34 -27q-72 -47 -111 -72q-29 -19 -65 -47q-24 -18 -39 -28q-53 -35 -75 -35 q-23 0 -37 17q-15 18 -15 45z" />
<glyph unicode="&#xfe;" horiz-adv-x="1077" d="M-18 -281q0 44 88 392q260 1049 260 1355q0 32 9 47t40 15q30 0 77 -61q46 -59 46 -135q0 -72 -56 -361q128 59 239 59q108 0 223 -121q116 -122 116 -250q0 -130 -104 -243q-107 -116 -244 -175q-142 -61 -241 -61q-102 0 -159 45q-162 -635 -189 -635q-28 0 -67 44 q-38 42 -38 85zM307 352q59 -20 88 -20q153 0 308 103q157 104 157 224q0 84 -57 141q-56 56 -152 56q-93 0 -245 -92q-27 -131 -99 -412z" />
<glyph unicode="&#xff;" horiz-adv-x="960" d="M-39 -285q0 29 26 64t44 35q19 0 59 -45q119 -136 203 -136q64 0 115 112q49 107 97 252q50 151 51 155t3 9.5t4.5 13.5t4.5 13q3 8 7.5 21.5l6.5 19.5q-146 -198 -287 -198q-87 0 -159 80q-73 81 -73 188q0 103 54 293q52 181 125 319q73 136 116 136q38 0 69 -34 q32 -35 32 -69q0 -33 -53 -145q-166 -339 -166 -529q0 -34 20 -54q21 -21 49 -21q74 0 176 131q105 135 189 311q69 145 149 387q8 23 41 23t71 -49t38 -107q0 -42 -84 -279q-101 -286 -114 -322q-8 -24 -35 -99t-45 -126q-15 -42 -47.5 -134t-49.5 -140 q-102 -293 -307 -293q-116 0 -223 71t-107 146zM438 1331q0 39 30 75t61 36t75 -80q43 -79 43 -111t-17 -49q-18 -18 -36 -18q-44 0 -100 54t-56 93zM745 1331q0 38 31 75q30 36 63 36q30 0 74 -80q43 -79 43 -111t-17 -49q-18 -18 -38 -18q-45 0 -100 54q-56 54 -56 93z " />
<glyph unicode="&#x152;" horiz-adv-x="1925" d="M111 438q0 190 68 379q70 193 172 336q102 141 229 235q124 91 231 91q169 0 291 -162v14q0 39 16 55q50 68 450 68t400 -59q0 -40 -88 -56q-54 -11 -193 -25q-32 -3 -70.5 -7t-62.5 -6.5t-38 -3.5q-54 -5 -238 -37v-7q0 -140 -76 -419q24 -3 83 -3q65 0 189 11 q113 10 179 10q61 0 61 -29q0 -71 -168 -106q-170 -35 -389 -35q-57 -184 -67 -222q-3 -10 -10 -35.5t-11 -39.5q-25 -86 -25 -117q0 -65 58 -65q237 0 520 76q92 24 107 24q28 0 28 -43q0 -73 -225 -151t-438 -78q-95 0 -165 55q-71 56 -71 129v10q-205 -190 -409 -190 q-135 0 -237 133q-101 132 -101 270zM297 451q0 -114 49 -184t115 -70q128 0 297 184q182 197 250 434q16 64 16 123q0 169 -60 268t-143 99q-82 0 -205 -127q-121 -125 -221 -333q-98 -203 -98 -394z" />
<glyph unicode="&#x153;" horiz-adv-x="1855" d="M74 372q0 150 70 308t187 263q116 104 234 104q89 0 155 -57q68 -58 101 -144q162 201 328 201q122 0 222 -115q99 -114 99 -224q0 -111 -117 -179t-261 -68q-139 0 -271 31q-33 -78 -33 -154q0 -154 173 -154q118 0 226 36t118 36q53 0 53 -41q0 -55 -125 -120 q-124 -64 -240 -64q-114 0 -199 49q-86 50 -126 133q-157 -182 -351 -182q-105 0 -174 96t-69 245zM250 367q0 -158 78 -197q145 30 250 197q104 165 104 331q0 68 -23 132q-23 65 -65 92q-140 -39 -243 -219q-101 -177 -101 -336zM866 610q72 -18 181 -18t186 34 q78 34 78 89q0 54 -50 112t-100 58q-76 0 -156 -79q-83 -82 -139 -196z" />
<glyph unicode="&#x178;" horiz-adv-x="1177" d="M188 1323q0 143 82 143q34 0 53 -63q19 -61 48 -182q29 -122 75 -219q46 -98 113 -168t111 -70q37 0 134 175q108 195 199 351q102 176 144 176q43 0 70 -30q26 -29 26 -74q0 -43 -78 -172q-69 -114 -209 -341q-134 -217 -262 -460q-130 -247 -180 -309t-80 -62 q-45 0 -45 74q0 57 57 174q20 38 29 59q6 14 33 66q7 13 19 35.5t16 31.5q4 8 17 32.5t21 40.5q9 17 21 41l16 32q-118 29 -222 153q-101 120 -154 272q-54 154 -54 294zM500 1784q0 39 30 75q29 35 63 35q32 0 75 -79t43 -111q0 -30 -19 -49t-37 -19q-43 0 -100 55 q-55 54 -55 93zM809 1784q0 39 30 75q29 35 62 35t75 -79t42 -111q0 -31 -18 -49q-19 -19 -35 -19q-44 0 -101 55q-55 54 -55 93z" />
<glyph unicode="&#x2c6;" horiz-adv-x="686" d="M20 1247q0 37 33 73q31 34 83 64q47 27 83 50q26 17 53 32q42 24 44 25q26 13 41 18q21 7 32 7q13 0 32 -11q18 -10 28 -22l49 -62q39 -48 61 -71q29 -30 42 -48q4 -5 9 -11.5t12 -15t11 -13.5q33 -40 33 -66q0 -49 -54 -49q-34 0 -80 39q-48 40 -73 71q-29 36 -80 101 q-53 -28 -120 -79q-90 -68 -102 -77q-40 -28 -69 -28q-28 0 -48 18t-20 55z" />
<glyph unicode="&#x2dc;" horiz-adv-x="727" d="M20 1228q0 68 80 151t162 83q50 0 87 -24q38 -25 57 -54q51 -84 88 -90q34 6 78 75t83 69q52 0 52 -71q0 -69 -66 -146q-66 -76 -141 -76q-112 0 -230 180q-39 -18 -70 -61q-21 -29 -57 -74q-25 -31 -55 -31q-68 0 -68 69z" />
<glyph unicode="&#x2000;" horiz-adv-x="996" />
<glyph unicode="&#x2001;" horiz-adv-x="1993" />
<glyph unicode="&#x2002;" horiz-adv-x="996" />
<glyph unicode="&#x2003;" horiz-adv-x="1993" />
<glyph unicode="&#x2004;" horiz-adv-x="664" />
<glyph unicode="&#x2005;" horiz-adv-x="498" />
<glyph unicode="&#x2006;" horiz-adv-x="332" />
<glyph unicode="&#x2007;" horiz-adv-x="332" />
<glyph unicode="&#x2008;" horiz-adv-x="249" />
<glyph unicode="&#x2009;" horiz-adv-x="398" />
<glyph unicode="&#x200a;" horiz-adv-x="110" />
<glyph unicode="&#x2010;" horiz-adv-x="940" d="M109 594q0 45 231 87t401 42q123 0 123 -51q0 -33 -66 -54q-56 -18 -322 -71q-255 -51 -278 -51q-24 0 -57 34q-32 33 -32 64z" />
<glyph unicode="&#x2011;" horiz-adv-x="940" d="M109 594q0 45 231 87t401 42q123 0 123 -51q0 -33 -66 -54q-56 -18 -322 -71q-255 -51 -278 -51q-24 0 -57 34q-32 33 -32 64z" />
<glyph unicode="&#x2012;" horiz-adv-x="940" d="M109 594q0 45 231 87t401 42q123 0 123 -51q0 -33 -66 -54q-56 -18 -322 -71q-255 -51 -278 -51q-24 0 -57 34q-32 33 -32 64z" />
<glyph unicode="&#x2013;" horiz-adv-x="1249" d="M137 594q0 44 338 107q337 63 572 63q124 0 124 -51q2 -41 -188 -80q-67 -15 -181 -33q-31 -5 -170 -28q-81 -13 -154 -29q-34 -7 -88.5 -18.5t-74.5 -15.5q-61 -13 -90 -13q-28 0 -57 32q-31 34 -31 66z" />
<glyph unicode="&#x2014;" horiz-adv-x="1878" d="M137 598q0 68 469 110t1012 42q203 0 203 -58q0 -44 -213 -65q-143 -13 -398 -29q-264 -16 -406 -30q-138 -13 -350 -42q-197 -27 -238 -29q-28 -2 -53 32q-26 35 -26 69z" />
<glyph unicode="&#x2018;" horiz-adv-x="587" d="M115 1339q0 131 117 260q120 132 196 132q57 0 57 -45q0 -27 -47 -72q-51 -49 -94 -105q-47 -61 -47 -110q0 -52 18 -76q19 -26 41 -33q58 -23 58 -62q0 -41 -32 -68t-75 -27q-80 0 -136 56t-56 150z" />
<glyph unicode="&#x2019;" horiz-adv-x="585" d="M104 1178q0 24 47 69t93 105q47 61 47 110q0 51 -19 76t-39 35q-59 24 -59 63q0 40 32 67q33 28 75 28q79 0 136 -57q56 -56 56 -150q0 -129 -119 -260t-194 -131q-56 0 -56 45z" />
<glyph unicode="&#x201a;" horiz-adv-x="595" d="M51 -332q0 24 43 74q129 153 129 256q0 34 -26 54q-36 28 -54 40q-26 17 -26 46q0 28 36 70t87 42t101 -61t50 -136q0 -130 -110 -271q-111 -142 -189 -142q-41 0 -41 28z" />
<glyph unicode="&#x201c;" horiz-adv-x="1005" d="M115 1339q0 129 111 260q112 132 188 132q55 0 55 -48q0 -24 -40 -70q-35 -40 -80 -107q-40 -59 -40 -117q0 -57 35 -101t35 -74t-26 -56q-25 -25 -66 -25q-74 0 -123 58t-49 148zM551 1339q0 125 102 252t193 127q55 0 55 -47q0 -39 -78 -119q-27 -29 -52 -75 q-23 -43 -23 -94q0 -50 33 -92q34 -43 34 -76q0 -32 -25 -57t-65 -25q-75 0 -124 58q-50 59 -50 148z" />
<glyph unicode="&#x201d;" horiz-adv-x="997" d="M104 1192q0 24 38 70q44 53 77 101q39 57 39 111q0 55 -34 98t-34 76q0 31 26 57t65 26q73 0 123 -59q51 -60 51 -148q0 -123 -103 -252q-102 -127 -192 -127q-56 0 -56 47zM528 1180q0 24 40 70q35 40 80 107q40 59 40 118q0 56 -35 100t-35 74t26 56t67 26 q74 0 124 -59t50 -148q0 -129 -113 -260t-188 -131q-56 0 -56 47z" />
<glyph unicode="&#x201e;" horiz-adv-x="993" d="M29 -332q0 24 43 74q129 153 129 256q0 33 -27 54q-46 36 -52 40q-26 18 -26 46q0 27 35 70q35 42 74 42q66 0 116 -61t50 -136q0 -129 -111 -271t-190 -142q-41 0 -41 28zM467 -332q0 24 43 74q129 153 129 256q0 33 -27 54q-46 36 -52 40q-25 18 -25 46q0 29 34 70 q35 42 74 42q66 0 116 -61t50 -136q0 -129 -111 -271t-190 -142q-41 0 -41 28z" />
<glyph unicode="&#x2022;" horiz-adv-x="485" d="M102 707q0 54 44 109q44 54 91 54q45 0 108 -124t63 -187q0 -18 -28 -44t-52 -26q-66 0 -146 81q-80 82 -80 137z" />
<glyph unicode="&#x2026;" horiz-adv-x="1363" d="M115 165q0 45 36 88q36 44 73 44q39 0 88 -100q50 -102 50 -152q0 -16 -22 -37q-21 -20 -43 -20q-51 0 -117 66q-65 65 -65 111zM569 166q0 44 35 88q34 43 74 43q39 0 88 -100q49 -99 49 -152q0 -16 -21 -37q-20 -20 -44 -20q-52 0 -116 66q-65 67 -65 112zM1024 165 q0 45 37 88q38 44 75 44q38 0 87 -100q49 -99 49 -152q0 -15 -22 -37q-20 -20 -44 -20q-50 0 -116 66t-66 111z" />
<glyph unicode="&#x202f;" horiz-adv-x="398" />
<glyph unicode="&#x2039;" horiz-adv-x="1183" d="M174 635q0 29 24 72q23 42 46 59q86 70 290 161q203 91 283 91q36 0 71 -23q34 -22 34 -45q0 -32 -72 -53q-178 -56 -343 -132q-163 -75 -163 -114q0 -35 127 -96t255 -120t128 -83q0 -43 -86 -43t-340 126t-254 200z" />
<glyph unicode="&#x203a;" horiz-adv-x="1210" d="M260 339q0 32 278 160q277 127 277 163q0 42 -125 117q-122 74 -254 112q-80 24 -80 53q0 19 31 47q30 27 55 27q103 -2 320 -132t217 -222q0 -62 -43 -99q-88 -72 -306 -165t-294 -93t-76 32z" />
<glyph unicode="&#x205f;" horiz-adv-x="498" />
<glyph unicode="&#x20ac;" horiz-adv-x="1132" d="M31 502q0 29 188 59q21 93 51 170q-44 -4 -74 -4q-26 0 -55 42q-28 41 -28 73q0 42 243 65q122 208 293 343q172 136 346 136q58 0 110 -59t52 -115q0 -28 -14 -48q-15 -21 -29 -21q-13 0 -50 31q-36 30 -69 30q-88 0 -203 -79q-120 -82 -217 -203q121 6 195 6 q303 0 303 -74q0 -37 -135 -55q-135 -21 -475 -45q-46 -85 -68 -166q308 39 466 39q159 0 159 -52q0 -41 -139 -71q-152 -33 -461 -76l-39 -6q12 -98 70 -156q57 -57 164 -57q108 0 213 36q116 40 177 71q71 36 97 36q35 0 35 -45q0 -44 -85 -110q-87 -67 -214 -116 q-130 -50 -234 -50q-176 0 -282 103t-117 263q-45 -6 -81 -6t-65 41q-28 40 -28 70z" />
<glyph unicode="&#x2122;" horiz-adv-x="1507" d="M102 1327q0 17 63 21q56 4 209 4q145 0 205 -23q58 -22 58 -53q0 -21 -66 -21q-2 0 -18 0.5t-54 2t-79 2.5q-11 -77 -70 -269q-57 -205 -78 -205q-14 0 -36 21q-23 21 -23 40q0 18 44 177q43 157 54 236l-147 -7q-20 0 -41 27t-21 47zM637 858q0 21 57 219q58 201 58 252 q0 27 28 27q16 0 48 -24q33 -25 34 -42q6 -62 101 -243q16 17 86 93q15 16 41 45t36 40q10 10 30 31t30 31q27 28 50 46q20 15 36 15q17 0 41 -18t24 -40q0 -23 -45 -167q-23 -73 -56 -185q-5 -16 -17 -65q-1 -4 -15 -46q-12 -41 -27 -41t-33 21t-18 55q0 31 22 130 q21 94 50 169q-8 -8 -18 -19t-24 -26t-23 -25q-52 -56 -60 -64q-29 -29 -45 -44q-45 -45 -78 -45q-32 0 -59 33t-76 143q-53 -150 -66 -198q-9 -32 -20 -65q-7 -21 -10 -28l-8 -20q-8 -17 -19 -17q-10 0 -33 26q-22 25 -22 46z" />
<glyph unicode="&#x25fc;" horiz-adv-x="1044" d="M0 0v1044h1044v-1044h-1044z" />
</font>
</defs>
</svg>
