<svg id="Calque_1" data-name="Calque 1" xmlns="http://www.w3.org/2000/svg" viewBox="0 0 97.9 86.93"><defs><style>.cls-1{fill:#3cc319;}</style></defs><path class="cls-1" d="M105.23,73.92l-1.4-1.33c-.39-.16-4.34,2.19-6,3.81C85.41,88.56,70.76,94.55,53.24,93.65h0l-.91-.07A26.05,26.05,0,0,1,28.4,71.19c-2.85-19.88,4.9-35.51,19.73-47.86,4-3.35,9.52-5.32,14.66-6.85a9.84,9.84,0,0,1,3.83-.35l.57.07a12.59,12.59,0,0,1,7,3.86,14.43,14.43,0,0,1,2.07,2.76,12.18,12.18,0,0,1,.93,2c2.87,8.11-.47,22.14-7,26.73a8.64,8.64,0,0,1-4.52,1.58,1.49,1.49,0,0,1-.77-.21c-1.39-.9-2.05-3.44-2.34-5.38A19.66,19.66,0,0,1,63,41.64c.84-5.07-1.58-7.77-6.25-8.35a15.28,15.28,0,0,0-2-.12c-8.69,0-19.53,18-16.2,26.26a5.79,5.79,0,0,0,.31.67,4.83,4.83,0,0,0,.7,1,4.53,4.53,0,0,0,.49.49,5.66,5.66,0,0,0,6.79.33c3-1.93,6.32-3.83,9-6.19a5.68,5.68,0,0,1,4.28-1.48,2.67,2.67,0,0,1,1,.26,12.61,12.61,0,0,0,4.19,1.31l.44,0c3.23.22,6-1.26,8.37-4,3.28-3.87,6.68-8,8.54-12.66C88,25.85,82,14.56,68.33,12.06c-1.29-.24-2.61-.42-4-.54l-.79-.06a43.57,43.57,0,0,0-11.6.69C30.44,16.49,13.83,35.89,12.24,57.74c-.53,7.37.17,13.6,2.25,18.84A26.9,26.9,0,0,0,21,86.26a37.84,37.84,0,0,0,11.87,7.49,57.71,57.71,0,0,0,16,4.14l1.08.11,1.23.1,1.35.08c18.75.9,40.35-4.84,51.2-21.08C104.37,76.13,105.53,74.4,105.23,73.92ZM58.17,46.24c-2.17,4.9-4.05,5.92-8.61,9.41-.14.11-.64.43-.83.56-1.16.81-3.71,1.3-4.6.9a3.41,3.41,0,0,1-1.75-2.7s0,0,0-.09,0-.27,0-.46V53.8a4,4,0,0,1,0-.41c.28-5.59,6-13.76,10.07-15.26,1.24-.46,3-1,4.28-.16l.94.82A7.27,7.27,0,0,1,58.17,46.24Z" transform="translate(-12.07 -11.34)"/><path class="cls-1" d="M110,66.58v1a4.38,4.38,0,0,1-.5,0c-8.74-.29-17.55-1.08-25.24,5.2l-.17.14-1.14-1.77a71.72,71.72,0,0,1,4.23-6.63c3.63-4.54,7.56-8.83,11.14-13.39.89-1.14,1.69-3.32,1.17-4.32s-2.69-1.38-4.2-1.62l-.1,0H95s0,0,0,0c-1.26-.14-2.61.13-3.86,0a4.52,4.52,0,0,1-.82-.13c-1.19-.3-2.15-1.51-3.21-2.31l.6-1.15h20.84v0L90.93,65.14a9.27,9.27,0,0,0,1.77.36,4.07,4.07,0,0,0,.49,0c4.2.28,8.28-1.91,12-1.48h.12A7.41,7.41,0,0,1,110,66.58Z" transform="translate(-12.07 -11.34)"/><path class="cls-1" d="M105.23,73.92l-1.4-1.33c-.39-.16-4.34,2.19-6,3.81C85.41,88.56,70.76,94.55,53.24,93.65h0l-.91-.07A26.05,26.05,0,0,1,28.4,71.19c-2.85-19.88,4.9-35.51,19.73-47.86,4-3.35,9.52-5.32,14.66-6.85a9.84,9.84,0,0,1,3.83-.35l.57.07a12.59,12.59,0,0,1,7,3.86,14.43,14.43,0,0,1,2.07,2.76,12.18,12.18,0,0,1,.93,2c2.87,8.11-.47,22.14-7,26.73a8.64,8.64,0,0,1-4.52,1.58,1.49,1.49,0,0,1-.77-.21c-1.39-.9-2.05-3.44-2.34-5.38A19.66,19.66,0,0,1,63,41.64c.84-5.07-1.58-7.77-6.25-8.35a15.28,15.28,0,0,0-2-.12c-8.69,0-19.53,18-16.2,26.26a5.79,5.79,0,0,0,.31.67,4.83,4.83,0,0,0,.7,1,4.53,4.53,0,0,0,.49.49,5.66,5.66,0,0,0,6.79.33c3-1.93,6.32-3.83,9-6.19a5.68,5.68,0,0,1,4.28-1.48,2.67,2.67,0,0,1,1,.26,12.61,12.61,0,0,0,4.19,1.31l.44,0c3.23.22,6-1.26,8.37-4,3.28-3.87,6.68-8,8.54-12.66C88,25.85,82,14.56,68.33,12.06c-1.29-.24-2.61-.42-4-.54l-.79-.06a43.57,43.57,0,0,0-11.6.69C30.44,16.49,13.83,35.89,12.24,57.74c-.53,7.37.17,13.6,2.25,18.84A26.9,26.9,0,0,0,21,86.26a37.84,37.84,0,0,0,11.87,7.49,57.71,57.71,0,0,0,16,4.14l1.08.11,1.23.1,1.35.08c18.75.9,40.35-4.84,51.2-21.08C104.37,76.13,105.53,74.4,105.23,73.92ZM58.17,46.24c-2.17,4.9-4.05,5.92-8.61,9.41-.14.11-.64.43-.83.56-1.16.81-3.71,1.3-4.6.9a3.41,3.41,0,0,1-1.75-2.7s0,0,0-.09,0-.27,0-.46V53.8a4,4,0,0,1,0-.41c.28-5.59,6-13.76,10.07-15.26,1.24-.46,3-1,4.28-.16l.94.82A7.27,7.27,0,0,1,58.17,46.24Z" transform="translate(-12.07 -11.34)"/></svg>